<?xml version="1.0" standalone="no"?>
<!DOCTYPE svg PUBLIC "-//W3C//DTD SVG 20010904//EN"
 "http://www.w3.org/TR/2001/REC-SVG-20010904/DTD/svg10.dtd">
<svg version="1.0" xmlns="http://www.w3.org/2000/svg"
 width="1024.000000pt" height="1024.000000pt" viewBox="0 0 1024.000000 1024.000000"
 preserveAspectRatio="xMidYMid meet">

<g transform="translate(0.000000,1024.000000) scale(0.100000,-0.100000)"
fill="#000000" stroke="none">
<path d="M4772 9282 c-72 -72 -1160 -1358 -1140 -1347 7 4 -7 -13 -32 -38 -70
-70 -96 -100 -80 -91 8 4 -15 -26 -50 -67 -35 -41 -68 -73 -73 -71 -5 1 -6 -1
-3 -6 2 -4 -11 -25 -29 -45 -19 -21 -39 -47 -45 -57 -6 -11 -14 -19 -18 -17
-4 1 -7 0 -7 -3 0 -3 -14 -23 -32 -45 -18 -21 -29 -43 -26 -48 3 -6 1 -7 -5
-3 -12 7 -35 -27 -25 -37 3 -4 -4 -4 -17 -2 -18 4 -20 2 -9 -11 9 -12 10 -17
0 -27 -10 -9 -11 -8 -6 8 5 15 0 12 -19 -9 -13 -17 -22 -34 -19 -39 3 -6 1 -7
-4 -4 -6 4 -18 -2 -27 -12 -13 -14 -14 -21 -5 -27 8 -5 10 -3 4 6 -5 8 -4 11
3 6 5 -3 12 0 15 6 4 10 7 10 16 1 6 -7 8 -11 4 -8 -3 3 -14 -2 -23 -10 -12
-11 -16 -27 -13 -58 3 -23 2 -39 -2 -35 -3 3 -7 20 -7 37 -1 17 -6 31 -12 31
-6 0 -4 5 4 10 8 5 10 10 4 10 -6 0 -30 -22 -52 -49 -29 -34 -40 -55 -35 -67
4 -12 3 -15 -6 -10 -6 4 -11 4 -10 -1 3 -19 -2 -27 -10 -14 -6 9 -11 10 -15 2
-4 -6 -2 -11 4 -11 6 0 8 -5 4 -12 -4 -6 -3 -8 4 -4 19 12 19 -28 -1 -57 -16
-24 -21 -26 -35 -15 -15 11 -15 11 -5 -3 7 -9 10 -19 6 -22 -3 -4 2 -9 11 -13
9 -3 14 -10 11 -14 -3 -4 6 -10 18 -14 25 -6 33 -36 11 -36 -8 0 -11 6 -8 15
7 18 -7 20 -24 3 -9 -9 -12 -6 -12 15 0 17 -5 27 -15 27 -8 0 -15 -7 -15 -16
0 -8 -4 -13 -9 -9 -5 3 -12 1 -16 -5 -3 -5 -11 -10 -17 -10 -6 0 -6 6 2 15 7
9 10 18 7 22 -4 3 -9 -2 -13 -11 -3 -9 -10 -13 -15 -10 -5 3 -9 0 -9 -5 0 -6
5 -11 10 -11 6 0 10 -5 10 -11 0 -6 -7 -9 -15 -6 -8 4 -16 3 -19 -1 -2 -4 13
-8 35 -8 28 -1 38 3 35 12 -2 6 4 14 15 17 12 3 19 0 19 -10 0 -8 -5 -11 -11
-7 -7 4 -10 1 -7 -6 2 -8 -4 -22 -14 -32 -23 -23 -24 -58 0 -58 13 0 14 -2 3
-9 -7 -5 -10 -14 -7 -20 4 -6 2 -11 -3 -11 -6 0 -11 7 -11 15 0 8 -5 15 -11
15 -6 0 -9 6 -6 14 4 9 -3 16 -17 18 -19 4 -22 1 -18 -14 4 -15 7 -17 13 -6 7
10 9 10 9 0 0 -7 -15 -20 -32 -28 -21 -10 -25 -13 -10 -10 15 3 31 -4 47 -19
l23 -24 -30 6 c-22 4 -29 3 -24 -5 4 -7 17 -12 29 -13 19 0 20 -1 4 -8 -10 -4
-18 -11 -18 -16 1 -13 -46 -25 -67 -18 -15 4 -15 3 -2 -6 12 -8 12 -13 2 -23
-15 -15 -16 -28 -1 -28 5 0 7 5 4 10 -3 6 -1 10 4 10 16 0 14 -11 -6 -32 -9
-11 -11 -18 -5 -18 7 0 12 -6 12 -14 0 -17 18 -31 28 -21 3 3 0 10 -8 15 -13
9 -13 10 0 10 13 0 13 1 0 10 -13 8 -13 11 -1 19 7 5 11 13 7 19 -10 16 5 44
20 38 7 -3 16 -1 19 4 8 13 25 13 25 0 0 -5 -11 -12 -25 -16 -14 -3 -25 -10
-25 -14 0 -5 9 -6 20 -3 11 3 20 0 20 -6 0 -6 -4 -11 -10 -11 -5 0 -10 -9 -10
-20 0 -11 -4 -20 -8 -20 -5 0 -9 -22 -10 -49 -1 -40 2 -49 14 -44 10 4 12 0 8
-10 -7 -19 -32 -11 -36 11 -2 12 -6 13 -11 5 -4 -6 0 -18 8 -26 19 -20 19 -27
0 -27 -8 0 -15 7 -15 15 0 9 -9 15 -22 15 -22 -1 -23 -1 -4 -15 11 -8 16 -15
10 -15 -5 0 -1 -7 9 -14 12 -9 14 -16 8 -21 -6 -3 -11 -1 -11 4 0 19 -45 12
-58 -9 -11 -17 -10 -20 7 -20 11 0 22 8 24 18 3 9 5 2 6 -17 0 -19 9 -40 19
-48 15 -13 15 -13 -5 -4 -12 6 -23 15 -25 20 -1 4 -14 11 -28 15 -23 6 -23 6
-8 -7 13 -10 15 -16 6 -25 -9 -9 -6 -12 15 -12 15 0 27 -4 27 -9 0 -5 -11 -8
-24 -7 -22 3 -23 1 -15 -20 5 -14 5 -24 0 -24 -5 0 -7 -9 -4 -20 3 -11 10 -20
15 -20 5 0 6 -4 3 -10 -3 -5 -13 -10 -21 -10 -10 0 -13 7 -8 25 7 27 -4 33
-24 13 -16 -16 -26 13 -18 52 3 17 1 30 -4 30 -6 0 -10 -9 -10 -20 0 -11 -5
-20 -11 -20 -5 0 -7 -4 -4 -10 3 -5 1 -10 -4 -10 -6 0 -11 -5 -11 -11 0 -5 5
-7 11 -4 12 8 51 -24 43 -36 -2 -5 4 -14 15 -21 15 -9 17 -15 9 -25 -6 -7 -7
-13 -3 -13 4 0 2 -7 -5 -15 -7 -8 -20 -15 -30 -15 -10 0 -20 7 -24 15 -3 8
-10 15 -16 15 -8 0 -8 -6 0 -20 6 -11 17 -20 25 -20 8 0 15 -3 16 -7 0 -5 2
-20 4 -35 2 -19 -1 -28 -10 -28 -11 0 -13 8 -8 32 4 22 3 29 -5 24 -7 -4 -12
-14 -12 -22 0 -8 -7 -14 -15 -14 -8 0 -15 -7 -15 -15 0 -8 5 -15 11 -15 5 0 7
6 3 13 -5 8 -2 8 9 -2 23 -18 21 -34 -3 -26 -16 5 -20 2 -20 -19 0 -16 6 -26
14 -26 19 0 14 -30 -7 -42 -13 -7 -17 -5 -17 7 0 9 -4 13 -10 10 -7 -4 -7 3 0
19 11 31 -4 36 -20 7 -7 -15 -6 -23 6 -35 14 -14 14 -18 0 -31 -20 -20 -26
-19 -26 7 0 25 -9 19 -15 -10 -4 -23 21 -37 48 -27 8 4 18 2 21 -4 4 -6 -8
-13 -28 -17 -41 -7 -65 -29 -42 -37 8 -3 17 1 20 8 3 8 12 12 20 9 12 -5 12
-8 -2 -23 -9 -10 -20 -16 -24 -14 -5 2 -8 -2 -8 -11 0 -8 6 -17 13 -19 9 -4 8
-8 -3 -16 -12 -8 -16 -6 -21 12 -6 20 -7 20 -14 4 -4 -10 -2 -24 5 -32 9 -10
9 -15 1 -15 -6 0 -11 4 -11 8 0 5 -7 9 -15 9 -8 0 -15 -4 -15 -9 0 -4 -4 -8
-10 -8 -6 0 -6 9 0 26 12 32 12 34 -1 34 -5 0 -7 -4 -4 -10 3 -5 -3 -10 -14
-10 -12 0 -21 -5 -21 -11 0 -5 5 -7 10 -4 6 3 10 -3 10 -14 0 -29 -3 -37 -14
-33 -5 2 -4 -3 2 -11 13 -15 6 -50 -8 -42 -5 3 -6 -4 -3 -15 4 -15 11 -19 25
-14 14 4 18 2 14 -5 -5 -7 1 -11 16 -11 l22 0 -24 17 c-14 9 -27 18 -29 19 -1
1 0 7 3 12 3 6 27 -10 53 -35 31 -30 48 -42 51 -33 3 7 -3 19 -12 25 -9 7 -16
17 -16 24 0 6 -12 11 -26 11 -15 0 -23 4 -19 10 4 6 14 9 23 8 11 -2 18 5 20
21 3 16 0 21 -9 16 -8 -5 -10 -4 -5 4 6 9 11 9 22 0 7 -6 12 -15 9 -19 -3 -5
1 -11 7 -13 8 -3 6 -6 -4 -6 -22 -1 -24 -19 -3 -27 8 -4 15 -12 15 -20 0 -13
18 -19 47 -15 6 1 15 -3 18 -10 5 -7 -2 -10 -21 -7 -17 2 -29 -2 -32 -11 -3
-10 0 -12 11 -8 9 3 18 1 20 -6 3 -8 11 -4 22 11 9 12 22 19 28 16 8 -5 8 -3
0 7 -16 16 -17 29 -2 29 5 0 7 -5 3 -12 -5 -8 -2 -9 9 -5 18 7 21 -1 11 -27
-3 -9 -15 -16 -25 -16 -13 0 -17 -5 -12 -16 5 -14 2 -16 -20 -10 -15 3 -27 3
-27 -2 0 -7 28 -12 77 -15 7 0 10 -4 7 -9 -3 -5 -13 -8 -22 -7 -10 1 -26 1
-37 0 -17 -1 -18 -3 -5 -12 13 -9 13 -10 0 -6 -8 2 -15 10 -15 18 0 9 -13 15
-37 17 -30 3 -38 0 -38 -13 0 -9 4 -14 9 -11 5 3 8 -10 6 -29 -2 -35 16 -48
31 -24 4 8 9 7 15 -2 15 -24 10 -32 -16 -27 -13 3 -22 1 -19 -3 3 -5 17 -9 32
-10 l27 -1 -25 -8 c-29 -9 -66 10 -64 33 1 13 -2 14 -18 4 -15 -9 -15 -13 -4
-15 9 -2 12 -10 9 -18 -4 -10 2 -17 15 -21 22 -5 36 -29 26 -44 -3 -5 1 -9 8
-9 9 0 9 -3 -2 -10 -11 -7 -11 -10 -2 -10 7 0 10 -4 7 -10 -6 -9 17 -14 54
-13 7 1 9 -2 5 -7 -5 -4 -24 -6 -42 -3 -23 4 -34 12 -38 29 -5 19 -11 23 -30
18 -15 -4 -24 -2 -24 6 0 7 6 10 13 7 18 -7 41 20 25 29 -7 4 -14 2 -16 -4 -2
-7 -13 -12 -24 -12 -12 0 -19 -3 -15 -6 3 -4 -4 -15 -16 -25 -12 -10 -16 -18
-9 -19 6 0 12 5 12 10 0 17 20 11 27 -7 4 -10 16 -26 28 -35 l20 -18 -23 -6
c-22 -6 -21 -8 15 -24 23 -11 44 -14 54 -9 28 14 19 -43 -10 -63 -24 -16 -25
-16 -36 5 -16 34 -60 45 -85 22 -13 -12 -17 -22 -11 -28 7 -7 6 -17 0 -30 -9
-15 -7 -23 7 -36 17 -15 17 -15 5 1 -8 11 -9 22 -3 34 6 11 11 13 16 5 4 -6
12 -11 17 -11 6 0 8 4 4 9 -3 5 4 16 15 24 11 7 17 17 12 22 -4 5 -1 4 7 0 12
-7 11 -11 -7 -23 -17 -11 -19 -17 -9 -27 7 -7 19 -10 27 -8 13 4 13 3 1 -5
-16 -11 -23 -33 -23 -70 0 -20 -5 -22 -38 -20 -21 2 -36 6 -33 11 4 7 -11 11
-34 8 -6 -1 -18 8 -27 21 -9 12 -18 19 -21 16 -3 -2 8 -19 24 -36 27 -28 32
-54 7 -33 -6 5 -24 7 -39 4 -21 -4 -26 -10 -22 -24 5 -13 1 -19 -10 -19 -11 0
-15 5 -11 15 3 8 1 15 -4 15 -6 0 -10 -12 -10 -26 0 -14 4 -23 9 -20 5 4 20 2
33 -3 l23 -10 -25 -2 c-14 -1 -29 -1 -33 0 -5 1 -6 -3 -2 -9 11 -18 63 -12 67
8 3 12 6 14 11 5 5 -8 -4 -24 -23 -43 -23 -23 -29 -36 -24 -52 5 -17 3 -20
-10 -15 -9 4 -16 2 -16 -3 0 -6 9 -10 21 -10 12 0 19 -5 16 -12 -2 -7 -10 -12
-16 -10 -8 2 -10 -8 -5 -33 4 -24 3 -35 -6 -35 -7 0 -10 7 -6 15 3 8 -3 19
-14 25 -22 12 -33 1 -19 -20 7 -13 9 -13 10 0 0 8 4 4 8 -10 5 -15 3 -28 -4
-32 -13 -8 -56 -5 -73 6 -8 5 -12 0 -11 -16 0 -13 3 -18 5 -11 3 7 20 9 47 6
32 -3 44 0 54 13 12 17 13 17 13 0 0 -9 5 -14 10 -11 6 3 10 1 10 -4 0 -6 -6
-11 -12 -12 -7 0 -3 -5 10 -11 12 -6 22 -14 22 -19 0 -12 -29 -4 -51 14 -24
21 -29 21 -29 2 0 -17 -30 -35 -62 -36 -20 0 -20 -1 -5 -8 10 -4 18 -10 18
-14 -2 -19 1 -20 10 -2 9 19 9 18 5 -2 -3 -17 1 -23 15 -23 10 0 19 -4 19 -10
0 -14 -23 -13 -38 2 -7 7 -12 8 -12 3 0 -6 -5 -3 -11 5 -8 11 -12 12 -16 2 -2
-6 -9 -10 -14 -6 -15 9 -81 -68 -69 -80 14 -14 13 -26 -4 -26 -15 0 -29 -27
-21 -39 2 -4 -11 -24 -30 -44 -19 -21 -35 -38 -35 -40 0 -1 12 -2 28 -1 20 0
27 6 28 22 3 40 4 45 10 39 4 -3 13 0 21 8 19 20 44 19 37 0 -5 -11 2 -15 27
-15 23 0 30 -3 23 -10 -7 -7 -19 -8 -36 -1 -25 9 -38 6 -38 -10 0 -4 8 -5 19
-2 10 3 22 -1 26 -8 6 -9 2 -11 -12 -7 -12 3 -27 2 -34 -3 -10 -6 -11 -9 -1
-9 6 0 12 -4 12 -9 0 -5 -8 -7 -17 -5 -11 3 -23 -3 -30 -14 -9 -15 -9 -19 0
-18 7 0 13 -2 15 -6 1 -5 0 -8 -3 -8 -3 0 -14 0 -25 0 -14 0 -20 7 -21 23 l0
22 -10 -23 c-12 -32 -4 -42 29 -36 26 4 26 3 8 -11 -11 -8 -15 -15 -10 -15 6
0 16 6 22 12 10 10 15 10 21 -1 6 -8 11 -9 15 -3 3 6 2 13 -3 17 -6 3 -8 12
-4 20 3 8 0 15 -6 15 -6 0 -11 4 -11 8 0 5 10 8 23 8 15 -1 21 4 19 14 -3 12
-1 13 10 2 11 -11 10 -16 -6 -27 -12 -9 -16 -20 -12 -31 6 -16 7 -16 20 1 9
13 15 15 20 6 4 -6 12 -8 18 -5 7 4 8 2 4 -5 -6 -9 -11 -9 -22 0 -17 14 -19
-2 -1 -20 10 -11 8 -13 -10 -8 -12 2 -31 -2 -42 -10 -16 -11 -21 -11 -21 -2 0
10 -3 10 -12 0 -10 -11 -10 -14 0 -18 6 -3 12 -11 12 -19 0 -8 6 -14 12 -14 7
0 0 -12 -15 -26 -29 -26 -30 -48 -2 -24 11 9 15 9 15 1 0 -7 5 -9 10 -6 6 3
10 2 10 -4 0 -5 -6 -12 -12 -14 -10 -4 -10 -6 0 -6 20 -2 13 -21 -8 -21 -11 0
-20 -7 -20 -15 0 -8 -4 -15 -10 -15 -5 0 -10 9 -10 20 0 11 -5 20 -11 20 -6 0
-8 -7 -5 -16 3 -9 6 -19 6 -24 0 -4 11 -10 25 -12 17 -4 24 -1 23 8 -3 12 0
14 21 14 5 0 8 -11 6 -25 -1 -14 2 -28 6 -31 5 -3 9 2 9 10 0 20 7 20 26 1 9
-8 13 -23 11 -33 -4 -16 -5 -16 -6 1 -1 18 -9 21 -28 9 -8 -5 -9 -13 -3 -22 8
-12 10 -11 10 5 0 17 2 17 10 5 12 -19 33 -20 42 0 5 12 7 12 7 -3 1 -10 -6
-25 -15 -34 -8 -9 -13 -22 -10 -30 3 -8 1 -11 -4 -8 -11 7 -50 -30 -50 -47 0
-10 -3 -9 -9 1 -6 9 -2 20 10 32 17 17 25 39 16 39 -10 0 -47 -39 -47 -50 0
-7 -7 -10 -15 -6 -8 3 -15 3 -15 0 0 -6 53 -28 64 -25 4 1 14 -6 21 -16 7 -10
17 -14 21 -10 4 4 14 -3 22 -15 8 -14 11 -16 8 -5 -4 12 -2 16 5 11 6 -4 15
-1 19 7 7 10 11 10 24 0 17 -14 13 -31 -7 -31 -7 0 -6 4 3 10 8 5 10 10 4 10
-17 0 -37 -26 -21 -28 6 0 21 -2 32 -4 12 -2 19 2 17 10 -1 8 2 11 8 7 6 -3 8
-9 6 -13 -6 -10 21 -32 29 -24 4 4 6 2 5 -3 -5 -22 1 -34 13 -29 8 3 14 -2 14
-10 0 -11 -5 -12 -23 -4 -13 6 -21 16 -17 21 4 6 0 8 -11 4 -10 -4 -24 1 -35
12 -11 11 -22 17 -25 14 -3 -4 -6 0 -6 7 0 7 -3 10 -7 7 -7 -7 -262 123 -743
378 -416 221 -736 385 -749 385 -15 0 -50 -77 -51 -108 0 -13 33 -113 74 -222
41 -109 82 -230 92 -270 12 -44 26 -76 36 -81 10 -5 27 -28 38 -49 17 -32 33
-46 88 -72 37 -17 76 -32 86 -33 11 -2 25 -10 31 -19 7 -8 15 -13 18 -9 4 3 7
1 7 -6 0 -7 5 -9 10 -6 6 3 10 2 10 -4 0 -6 14 -18 31 -27 17 -8 28 -11 25 -5
-4 7 -1 8 8 5 9 -3 14 -9 12 -13 -3 -3 26 -23 63 -44 79 -42 83 -47 100 -105
20 -72 61 -105 246 -202 238 -125 631 -333 673 -357 24 -14 76 -42 115 -62
139 -72 292 -154 342 -181 28 -15 106 -57 175 -93 69 -35 184 -95 255 -132 72
-37 139 -73 150 -80 21 -13 99 -55 230 -125 44 -23 85 -46 90 -50 6 -4 53 -29
105 -56 52 -26 120 -62 150 -80 30 -17 102 -56 160 -87 58 -30 125 -67 150
-81 25 -14 70 -38 100 -54 54 -27 180 -95 290 -155 30 -16 102 -55 160 -87 58
-31 121 -66 140 -77 19 -11 91 -51 160 -88 69 -37 143 -79 165 -92 22 -13 74
-41 115 -62 41 -21 125 -65 185 -98 150 -81 310 -157 370 -177 28 -9 57 -19
65 -23 24 -10 42 -13 95 -18 60 -5 171 -16 205 -20 14 -1 32 -5 40 -8 52 -18
86 -27 106 -27 12 0 24 -4 26 -9 2 -6 15 -11 30 -13 15 -2 30 -7 34 -11 4 -4
18 -7 31 -7 13 0 23 -4 23 -8 0 -4 10 -9 23 -9 12 -1 40 -5 62 -9 79 -13 206
-1 257 24 45 24 151 94 163 109 21 25 91 106 111 129 12 12 19 25 17 28 -3 3
2 8 11 12 9 3 16 11 16 18 0 6 14 27 32 46 18 19 31 39 30 44 -2 4 6 15 16 25
21 19 82 117 82 132 0 5 4 8 8 5 4 -3 16 11 27 30 10 19 22 34 27 34 4 0 8 5
8 11 0 7 20 42 45 80 25 38 45 70 45 73 0 2 18 34 40 70 22 36 40 70 40 75 0
5 3 11 8 13 4 2 18 23 31 48 14 25 32 50 40 57 9 7 13 13 9 13 -3 0 4 19 18
43 13 23 31 57 41 75 9 17 20 32 25 32 4 0 8 8 8 18 0 11 9 27 20 37 11 10 18
21 15 25 -2 4 3 16 13 26 9 11 30 44 46 74 16 30 40 70 53 88 14 18 23 36 20
39 -3 3 9 28 27 56 18 29 35 60 39 69 3 10 11 18 17 18 5 0 10 7 10 15 0 14
18 53 30 65 3 3 16 28 29 55 13 28 30 53 37 58 7 4 11 14 8 22 -4 8 -1 15 5
15 6 0 11 6 11 14 0 8 3 16 7 18 5 2 26 37 47 78 22 41 48 88 59 103 10 15 20
35 21 43 1 9 7 19 12 22 5 4 17 23 26 42 30 61 84 158 95 172 6 7 15 26 18 41
4 15 12 31 19 35 6 4 26 36 45 72 18 36 41 74 50 84 9 11 10 16 3 12 -7 -4 1
12 17 36 16 24 37 59 48 78 10 19 30 53 44 75 14 22 34 58 44 80 11 22 21 42
24 45 4 3 24 39 45 80 90 173 138 261 176 323 26 44 56 100 130 242 29 55 74
141 101 190 27 50 56 106 65 125 9 19 28 60 44 90 27 54 35 69 119 220 22 41
56 104 73 140 18 36 35 67 38 70 10 8 102 198 100 206 -1 4 2 10 7 13 14 11
43 82 57 140 28 118 0 204 -98 304 -103 105 -198 164 -363 222 -54 20 -107 39
-118 44 -29 13 -58 24 -73 27 -17 3 -42 24 -42 35 0 5 26 56 59 112 158 276
330 584 336 605 3 12 11 22 16 22 16 0 49 63 49 93 0 47 -19 68 -88 99 -37 17
-143 65 -237 108 -93 43 -262 119 -375 170 -113 51 -376 170 -585 265 -582
265 -1106 501 -1255 567 -74 33 -277 125 -450 203 -424 192 -1360 618 -1539
699 -152 69 -198 79 -229 48z m178 -273 c0 -5 -7 -9 -15 -9 -8 0 -15 5 -15 10
0 6 -4 10 -10 10 -5 0 -10 -9 -10 -20 0 -27 -27 -37 -47 -17 -24 24 -9 45 34
49 38 3 63 -6 63 -23z m395 -849 c22 -5 63 -9 90 -10 36 0 46 -3 35 -10 -34
-22 -179 -3 -210 28 -16 16 -20 16 85 -8z m566 -98 c23 -30 24 -63 4 -102 -15
-30 -40 -40 -130 -56 -22 -4 -32 -9 -22 -11 52 -13 -11 -53 -83 -53 -74 0
-132 37 -92 59 22 12 62 -7 41 -20 -8 -5 6 -6 36 -3 72 9 82 21 55 73 -17 34
-19 46 -9 57 18 22 26 17 33 -21 4 -19 14 -38 22 -43 25 -14 96 4 116 28 23
29 23 55 -3 96 -17 29 -18 36 -7 56 l13 23 3 -30 c2 -16 12 -40 23 -53z m-725
57 c3 -6 1 -16 -6 -22 -9 -9 -14 -8 -24 6 -19 25 -43 21 -54 -10 -9 -23 -11
-24 -11 -7 -1 11 4 25 11 32 15 15 74 16 84 1z m83 -109 c48 -24 99 -82 140
-160 18 -33 37 -62 43 -66 7 -4 23 7 39 26 l28 33 63 -27 c253 -112 291 -132
267 -147 -7 -4 -46 9 -88 28 -146 67 -233 103 -251 103 -10 0 -28 -12 -39 -26
-26 -33 -39 -25 -83 58 -50 94 -100 145 -164 164 -29 10 -54 21 -54 26 0 15
61 8 99 -12z m-416 -43 c51 -24 125 -57 165 -72 90 -35 118 -62 138 -134 23
-86 35 -107 124 -225 45 -60 91 -124 102 -143 24 -39 14 -60 -11 -23 -9 13
-57 76 -107 140 -50 63 -100 133 -112 155 l-20 40 -16 -54 c-9 -30 -16 -66
-16 -79 0 -17 -4 -22 -14 -19 -8 3 21 -54 65 -128 43 -74 79 -138 79 -144 0
-5 19 -9 43 -9 119 2 191 -118 121 -201 -26 -31 -101 -61 -153 -61 -72 0 -151
77 -151 148 0 33 42 92 66 92 9 0 0 21 -26 61 -21 33 -46 81 -54 107 -21 65
-31 152 -17 152 6 0 10 3 10 8 -4 26 4 54 28 88 30 44 33 86 10 131 -13 25
-39 40 -149 87 -73 31 -137 56 -142 56 -5 0 -14 -7 -20 -16 -14 -18 -46 -9
-46 13 0 8 -5 11 -10 8 -19 -12 -23 26 -5 45 10 11 20 20 22 20 2 0 46 -20 96
-43z m477 -113 c0 -17 -22 -14 -28 4 -2 7 3 12 12 12 9 0 16 -7 16 -16z m680
-63 c0 -26 -26 -47 -34 -26 -3 8 -3 22 0 30 9 21 34 19 34 -4z m-419 -37 c35
-14 73 -29 84 -34 11 -4 24 -7 29 -6 5 0 12 -9 17 -21 6 -16 22 -26 54 -34 25
-6 45 -13 45 -16 0 -4 -88 -143 -96 -152 -2 -2 -68 26 -147 62 -79 37 -149 67
-155 67 -27 0 -19 24 30 89 29 39 58 71 64 71 5 0 39 -12 75 -26z m-1026 -53
c-3 -12 0 -21 9 -24 9 -4 17 2 21 14 8 25 27 14 23 -14 -2 -17 8 -25 60 -45
42 -16 66 -32 71 -45 l8 -22 7 22 c7 23 47 45 113 62 105 28 189 -78 133 -167
-51 -82 -203 -83 -245 -2 -8 16 -15 39 -15 52 0 20 -18 32 -121 81 l-122 58
23 24 c28 30 44 32 35 6z m2037 -71 c-23 -27 -27 -28 -34 -13 -11 28 -9 31 15
36 43 8 45 7 19 -23z m25 -12 c-3 -8 -6 -5 -6 6 -1 11 2 17 5 13 3 -3 4 -12 1
-19z m-128 -11 c-2 -3 -47 -16 -99 -31 -123 -35 -258 -99 -343 -164 -77 -59
-107 -77 -107 -64 0 12 88 87 151 130 96 65 369 163 393 141 5 -5 8 -10 5 -12z
m-2272 -61 c4 -7 70 -40 147 -72 98 -42 141 -65 146 -80 6 -14 38 -33 98 -58
102 -43 120 -59 156 -136 35 -74 33 -122 -5 -185 -31 -50 -32 -47 -9 36 11 39
11 53 -5 103 -25 79 -64 117 -155 151 -49 18 -86 39 -106 61 -31 34 -225 125
-271 128 -13 0 -23 4 -23 9 0 4 -7 7 -15 7 -19 0 -19 9 2 32 19 22 29 23 40 4z
m2396 -52 c46 -23 67 -53 67 -97 0 -75 -92 -131 -181 -112 -44 10 -97 60 -105
100 -10 54 21 97 86 118 33 11 103 6 133 -9z m-1197 -38 c10 -8 15 -18 11 -22
-4 -4 -17 2 -29 14 -25 25 -13 30 18 8z m1463 -79 c17 -43 13 -76 -14 -135
-27 -58 -25 -73 11 -97 42 -27 64 -74 63 -135 -1 -60 -28 -151 -47 -158 -16
-5 -15 13 3 72 18 59 19 119 4 149 -7 12 -29 41 -51 65 -42 46 -43 53 -7 124
23 45 24 80 4 122 -13 27 -14 38 -4 62 l12 29 7 -35 c4 -19 12 -48 19 -63z
m-2682 37 c6 -16 -12 -34 -34 -34 -14 0 -18 32 -6 43 12 12 34 7 40 -9z m1388
-110 c-25 -19 -154 -58 -162 -50 -9 9 -8 9 87 43 86 31 111 33 75 7z m-1677
-32 c5 -16 29 -15 36 1 3 6 4 -1 3 -16 -2 -26 3 -30 78 -61 112 -47 366 -164
392 -182 12 -7 24 -14 26 -14 11 0 85 120 92 148 6 28 4 32 -14 32 -14 0 -21
6 -21 20 0 25 32 27 55 3 27 -26 11 -88 -40 -163 -25 -36 -45 -76 -46 -90 0
-14 -4 -34 -8 -45 -9 -21 -9 -22 -40 58 -6 14 -32 32 -77 51 -122 52 -399 179
-411 188 -7 5 -14 5 -17 -1 -8 -12 -42 -3 -57 15 -6 8 -8 21 -3 31 4 10 8 21
9 26 2 4 3 9 4 11 2 9 35 -1 39 -12z m1017 -34 c4 -16 3 -28 -1 -28 -11 1 -43
68 -36 75 9 9 30 -18 37 -47z m1296 23 c30 -11 103 -40 163 -65 59 -25 114
-46 120 -46 7 0 20 -6 30 -13 17 -12 16 -16 -11 -71 -28 -57 -28 -58 -8 -72
87 -63 206 -170 246 -224 67 -88 127 -212 139 -285 9 -56 6 -96 -16 -207 -3
-17 -10 -25 -19 -22 -18 7 -22 19 -50 153 -40 187 -118 325 -246 431 -55 46
-103 70 -115 58 -2 -3 27 -31 66 -62 80 -65 156 -161 203 -255 30 -61 32 -73
32 -168 l0 -102 37 -17 c62 -28 91 -66 96 -127 10 -127 -106 -229 -241 -214
-60 8 -146 53 -166 90 -9 15 -22 25 -29 22 -8 -3 -26 -5 -40 -6 -26 -1 -26 -1
-4 -7 22 -7 22 -9 -33 -97 -88 -142 -152 -214 -237 -272 -142 -95 -279 -133
-500 -140 -116 -4 -161 -9 -169 -19 -14 -17 -5 -20 70 -28 128 -13 381 31 507
89 143 65 229 139 311 266 40 62 51 67 101 46 l31 -13 -73 -110 c-42 -63 -96
-130 -127 -157 -109 -95 -270 -159 -510 -201 -80 -14 -236 -44 -348 -66 -111
-22 -223 -40 -249 -40 -58 0 -102 28 -246 154 -54 48 -107 91 -117 97 -26 13
-24 22 16 82 19 28 35 58 35 65 0 7 4 11 9 8 5 -3 14 1 21 9 9 11 -1 29 -53
93 -124 152 -176 263 -217 459 l-27 131 59 94 c32 51 67 101 77 111 40 40 27
-5 -30 -107 -33 -59 -58 -114 -55 -122 4 -9 14 -12 34 -8 l29 6 11 -74 c6 -40
20 -102 31 -138 38 -123 183 -331 211 -304 9 9 -1 29 -45 85 -90 119 -154 273
-155 376 0 51 -9 63 -46 63 -24 0 -34 5 -34 16 0 17 111 194 122 194 4 0 47
-18 95 -41 l88 -40 23 28 c61 73 102 134 97 143 -3 5 0 12 8 17 23 14 97 115
91 124 -3 5 0 9 6 9 6 0 8 5 5 10 -4 6 -3 9 2 8 4 -1 52 41 106 94 86 85 106
99 160 117 132 42 222 50 347 31 145 -23 170 -24 170 -7 0 41 -266 65 -476 44
-80 -9 -81 -8 -87 14 -4 13 -3 27 1 31 10 10 98 33 185 47 72 12 339 18 372 8
11 -3 49 5 85 18 80 29 67 28 131 6z m1322 -44 c35 -87 12 -144 -69 -166 -90
-25 -130 -7 -84 39 24 24 43 25 64 4 14 -13 20 -13 43 -2 33 16 43 67 19 102
-14 22 -12 66 3 66 3 0 14 -19 24 -43z m-4478 16 c-1 -10 -8 -17 -15 -15 -7 2
-9 -5 -5 -18 5 -15 3 -18 -9 -14 -9 3 -16 1 -16 -6 0 -6 -5 -8 -11 -4 -7 4 2
19 22 40 38 39 38 39 34 17z m1385 -16 c0 -20 -22 -37 -47 -37 -26 0 -27 3
-13 31 12 21 60 26 60 6z m2723 -3 c10 -10 -32 -84 -48 -84 -20 0 -19 5 7 51
22 39 29 45 41 33z m1857 -39 c10 -12 10 -19 2 -27 -8 -8 -13 -7 -18 5 -3 9
-12 17 -20 17 -10 0 -11 -6 -4 -25 9 -23 7 -25 -20 -25 -37 0 -52 36 -24 57
24 18 69 17 84 -2z m-6010 -33 c0 -10 -7 -19 -15 -19 -18 0 -19 9 -3 25 16 16
18 15 18 -6z m1830 -16 c0 -16 -18 -31 -27 -22 -8 8 5 36 17 36 5 0 10 -6 10
-14z m193 -72 c94 -42 118 -68 130 -147 7 -48 -5 -83 -46 -125 -97 -102 -245
-100 -336 4 -40 46 -51 87 -43 159 5 40 63 112 106 131 42 19 113 11 189 -22z
m47 8 c0 -5 -7 -9 -15 -9 -8 0 -12 4 -9 9 3 4 9 8 15 8 5 0 9 -4 9 -8z m-413
-31 c0 -11 -5 -17 -9 -15 -4 3 -13 -6 -20 -20 -11 -26 -38 -36 -38 -15 0 10
54 69 64 69 2 0 4 -9 3 -19z m-770 -14 c12 5 15 2 11 -14 -5 -17 15 -29 160
-94 91 -41 180 -81 196 -89 27 -13 36 -29 65 -114 27 -77 43 -108 73 -138 22
-22 44 -36 50 -32 6 4 8 3 5 -3 -4 -6 4 -18 18 -27 31 -21 33 -40 3 -30 -36
10 -110 71 -137 110 -13 19 -36 70 -51 112 -31 89 -13 76 -267 191 -97 44
-153 65 -156 58 -3 -8 -14 -3 -31 12 l-26 24 28 28 c21 21 29 24 35 14 4 -8
15 -11 24 -8z m3455 -18 c51 -22 122 -52 158 -67 36 -14 66 -27 68 -28 5 -3
-27 -52 -55 -87 -29 -36 -30 -25 -2 20 12 19 20 36 18 37 -9 8 -91 47 -136 65
-108 43 -183 82 -178 91 10 17 31 12 127 -31z m-4368 16 c-4 -8 -11 -12 -16
-9 -6 4 -5 10 3 15 19 12 19 11 13 -6z m31 -21 c-10 -8 -20 -12 -23 -10 -7 8
23 34 32 28 5 -3 1 -11 -9 -18z m4296 -44 c41 -17 84 -37 96 -45 27 -18 36
-19 28 -2 -4 6 0 4 8 -5 8 -10 21 -18 30 -18 9 0 19 -4 22 -10 6 -10 -22 -69
-63 -135 -15 -22 -27 -41 -28 -43 0 -1 -48 20 -105 46 -57 27 -125 57 -151 67
l-47 17 41 62 c52 77 68 96 83 96 7 0 45 -14 86 -30z m-4281 -10 c8 -5 11 -10
5 -10 -5 0 -17 5 -25 10 -8 5 -10 10 -5 10 6 0 17 -5 25 -10z m-78 -28 c3 -11
0 -19 -8 -19 -8 0 -14 11 -14 24 0 27 15 23 22 -5z m53 -1 c3 -6 -4 -9 -15 -8
-11 1 -20 5 -20 9 0 11 28 10 35 -1z m-92 -37 c-5 -15 -16 -18 -26 -8 -10 11
4 33 18 28 8 -3 11 -12 8 -20z m77 6 c0 -5 -4 -10 -10 -10 -5 0 -10 5 -10 10
0 6 5 10 10 10 6 0 10 -4 10 -10z m664 -11 c-6 -10 26 -20 38 -12 6 3 8 1 4
-5 -7 -12 26 -27 72 -31 7 0 11 -5 7 -10 -5 -8 64 -38 74 -32 2 2 7 -2 10 -7
3 -5 43 -28 89 -51 48 -24 82 -47 82 -56 0 -8 -20 -53 -45 -99 -26 -47 -52
-112 -58 -146 -13 -62 -30 -82 -35 -42 -7 45 20 131 63 203 l44 74 -147 71
c-81 38 -173 81 -204 94 -53 22 -68 37 -52 53 8 8 63 4 58 -4z m4084 -10 c2
-13 -34 -39 -53 -39 -8 0 -6 46 2 54 12 12 48 2 51 -15z m-4798 -29 c0 -5 -5
-10 -11 -10 -5 0 -7 5 -4 10 3 6 8 10 11 10 2 0 4 -4 4 -10z m1590 -91 c-30
-57 -70 -102 -70 -80 0 17 38 91 69 131 37 50 39 18 1 -51z m-1632 24 c-10 -2
-15 -10 -11 -19 3 -9 -1 -14 -11 -14 -14 0 -15 4 -6 20 6 11 18 19 28 19 16
-1 16 -2 0 -6z m4029 -88 c80 -87 92 -105 75 -105 -12 0 -148 144 -163 171
-22 42 13 15 88 -66z m977 8 c21 -16 46 -39 55 -52 15 -23 15 -24 -6 -13 -12
7 -25 17 -28 22 -15 24 -88 51 -140 51 -42 1 -66 -6 -107 -28 -71 -40 -270
-160 -285 -173 -7 -6 -13 -30 -13 -53 0 -24 6 -51 13 -60 6 -8 53 -34 102 -56
50 -21 164 -73 255 -115 91 -42 171 -76 178 -76 14 0 15 -9 3 -29 -7 -12 -53
6 -238 91 -125 58 -252 116 -280 128 -45 19 -54 28 -63 59 -13 46 -13 71 1
110 9 26 26 39 83 68 39 19 89 48 111 63 71 47 157 93 189 100 49 10 127 -7
170 -37z m-640 -26 c-25 -48 -54 -87 -66 -87 -14 0 -3 26 35 82 36 51 56 55
31 5z m-3515 -1 c15 -8 33 -22 40 -30 19 -22 -4 -48 -38 -44 -22 3 -26 9 -29
41 -3 33 -6 37 -32 37 -16 0 -32 -4 -35 -10 -3 -5 -12 -10 -18 -10 -7 0 -3 7
7 15 25 19 69 19 105 1z m-285 -4 c-26 -16 -20 -47 14 -65 18 -10 38 -14 44
-11 7 5 8 2 3 -6 -6 -10 -4 -12 9 -7 9 4 15 3 12 -1 -3 -5 41 -28 97 -51 115
-48 147 -66 147 -83 0 -21 -67 0 -220 72 -84 39 -161 72 -172 73 -19 1 -19 1
-23 34 -1 12 1 20 6 18 4 -3 12 2 17 11 6 10 16 15 25 11 9 -3 19 -2 22 3 4 6
12 10 18 10 9 0 9 -2 1 -8z m666 -27 c0 -16 -27 -32 -37 -22 -3 4 -3 13 0 22
8 20 37 20 37 0z m-486 -35 c10 -13 9 -13 -6 -1 -10 7 -18 21 -17 30 0 13 1
14 6 1 3 -8 11 -22 17 -30z m-794 20 c0 -5 -5 -10 -11 -10 -5 0 -7 5 -4 10 3
6 8 10 11 10 2 0 4 -4 4 -10z m850 1 c0 -6 -5 -13 -10 -16 -15 -9 -43 3 -35
15 8 13 45 13 45 1z m4608 -28 c2 -15 -4 -23 -19 -28 -25 -8 -43 13 -28 31 7
8 6 14 -3 18 -7 3 1 4 17 3 22 -1 31 -8 33 -24z m-232 -51 c18 -22 34 -46 36
-53 5 -14 49 -16 98 -6 l35 8 -24 -21 c-19 -16 -35 -20 -70 -18 -42 3 -48 7
-88 60 -24 31 -52 60 -63 63 -11 4 -20 13 -20 21 0 26 62 -9 96 -54z m-5236
38 c0 -5 -5 -10 -11 -10 -5 0 -7 5 -4 10 3 6 8 10 11 10 2 0 4 -4 4 -10z
m4325 -6 c22 -9 45 -16 51 -16 6 -1 11 -6 12 -12 0 -6 5 -29 11 -51 21 -82
-47 -155 -146 -155 -102 0 -163 47 -163 126 0 96 121 151 235 108z m-3872 -98
c-4 -5 0 -7 9 -4 8 4 21 2 29 -4 11 -8 10 -9 -4 -4 -11 4 -16 2 -11 -5 3 -6
15 -9 25 -6 11 3 17 1 13 -4 -3 -5 1 -10 8 -10 7 -1 20 -3 28 -4 8 -1 21 -3
28 -4 7 0 11 -5 7 -10 -7 -12 31 -25 46 -15 7 4 9 3 5 -4 -14 -23 31 -16 62
10 25 22 43 28 78 28 25 0 43 -4 40 -9 -4 -5 2 -7 12 -4 24 6 73 -14 70 -29
-2 -7 17 -18 42 -26 263 -78 273 -83 254 -102 -8 -8 -42 -6 -114 5 -121 18
-143 19 -135 5 3 -5 1 -10 -4 -10 -6 0 -11 9 -11 20 0 34 -27 88 -49 100 l-22
11 21 -38 c25 -47 25 -69 0 -110 -46 -77 -175 -92 -239 -29 -21 21 -26 36 -27
78 l0 53 -90 42 c-49 23 -95 42 -101 42 -16 1 -17 17 -3 26 6 4 8 10 6 14 -3
3 4 7 14 7 10 0 16 -5 13 -10z m4237 -6 c0 -5 -11 -10 -25 -10 -14 0 -25 5
-25 10 0 6 11 10 25 10 14 0 25 -4 25 -10z m570 -162 c0 -10 -2 -18 -5 -18 -2
0 -71 29 -152 65 -81 36 -152 65 -158 65 -5 0 -23 -20 -38 -45 -16 -25 -35
-45 -43 -45 -21 0 -18 7 26 76 l41 61 164 -71 c123 -53 165 -75 165 -88z
m-4070 142 c0 -5 -5 -10 -11 -10 -5 0 -7 -6 -3 -12 4 -7 4 -10 -1 -6 -4 4 -16
3 -26 -3 -27 -14 -24 6 3 25 26 18 38 20 38 6z m260 4 c0 -3 -18 -32 -41 -66
-26 -38 -45 -56 -51 -50 -12 12 57 122 77 122 8 0 15 -2 15 -6z m-1487 -21
c-7 -2 -21 -2 -30 0 -10 3 -4 5 12 5 17 0 24 -2 18 -5z m47 -13 c0 -5 -5 -10
-11 -10 -5 0 -7 5 -4 10 3 6 8 10 11 10 2 0 4 -4 4 -10z m-40 -60 c0 -5 -5
-10 -11 -10 -5 0 -7 5 -4 10 3 6 8 10 11 10 2 0 4 -4 4 -10z m1563 -10 c-3
-11 -12 -20 -19 -20 -20 0 -17 28 4 33 9 3 18 5 19 6 0 0 -1 -8 -4 -19z
m-1593 0 c0 -5 -5 -10 -11 -10 -5 0 -7 5 -4 10 3 6 8 10 11 10 2 0 4 -4 4 -10z
m526 -13 c7 0 10 -7 9 -16 -2 -9 -4 -20 -4 -24 -1 -5 -13 -7 -28 -5 -21 2 -28
8 -27 25 0 12 -4 19 -9 16 -6 -3 -7 -1 -3 6 5 7 16 9 29 5 12 -4 27 -7 33 -7z
m-551 -7 c3 -5 1 -10 -4 -10 -6 0 -11 5 -11 10 0 6 2 10 4 10 3 0 8 -4 11 -10z
m4495 -30 c-5 -16 -31 -62 -59 -102 -73 -104 -80 -112 -87 -105 -7 6 140 237
150 237 3 0 1 -13 -4 -30z m-4495 -11 c11 -17 2 -18 -19 -3 -17 12 -17 14 -4
14 9 0 20 -5 23 -11z m62 5 c-3 -3 -12 -4 -19 -1 -8 3 -5 6 6 6 11 1 17 -2 13
-5z m1437 -8 c123 -51 61 -226 -80 -226 -53 0 -121 36 -140 73 -29 56 -4 135
51 158 32 13 133 10 169 -5z m57 -13 c13 -16 12 -17 -3 -4 -10 7 -18 15 -18
17 0 8 8 3 21 -13z m3916 0 c4 -10 11 -21 16 -24 17 -12 -2 -39 -27 -39 -13 0
-34 9 -47 20 l-24 20 25 20 c31 24 49 25 57 3z m-1127 -60 c0 -10 -42 -53 -52
-53 -14 0 -9 19 12 40 20 20 40 26 40 13z m313 -25 c75 -51 77 -98 4 -98 l-41
0 34 -25 c28 -21 34 -32 33 -58 -2 -18 0 -25 4 -17 9 22 24 30 56 30 62 0 87
-39 48 -74 -24 -22 -55 -17 -59 9 -4 20 -4 20 11 0 15 -19 17 -19 33 -3 24 23
11 48 -25 48 -33 0 -51 -22 -43 -52 9 -36 -36 2 -58 49 -23 50 -55 73 -101 75
-62 2 -78 -10 -145 -112 -36 -55 -103 -138 -149 -185 -92 -93 -135 -151 -161
-214 -17 -43 -34 -54 -34 -23 0 47 65 146 164 250 57 59 130 148 164 198 69
104 87 116 206 133 44 6 82 14 85 17 9 9 -40 45 -52 37 -6 -4 -7 -1 -2 7 6 10
4 12 -11 6 -10 -4 -15 -4 -11 0 4 4 -1 13 -11 20 -38 29 14 13 61 -18z m-4683
-22 c0 -2 -7 -7 -16 -10 -8 -3 -12 -2 -9 4 6 10 25 14 25 6z m4695 -16 c3 -6
-1 -7 -9 -4 -18 7 -21 14 -7 14 6 0 13 -4 16 -10z m-4731 -17 c-5 -5 -12 -12
-16 -18 -4 -6 -8 -2 -8 8 0 9 7 17 17 17 9 0 12 -3 7 -7z m1148 -8 c14 0 24
-4 20 -9 -3 -5 2 -7 11 -3 9 3 21 -1 29 -11 11 -15 11 -16 -2 -7 -9 6 -7 2 5
-9 18 -17 32 -61 15 -51 -4 3 -11 -16 -15 -42 -4 -26 -15 -69 -26 -95 -23 -60
-24 -70 -1 -98 14 -18 22 -20 43 -11 35 13 49 -2 42 -44 -6 -38 12 -79 32 -71
22 8 69 -12 84 -35 11 -19 10 -24 -5 -38 -16 -14 -17 -14 -6 0 10 13 8 19 -8
34 -20 18 -21 18 -38 1 -16 -16 -16 -18 2 -32 28 -20 11 -30 -19 -10 -16 10
-30 33 -37 61 -7 24 -16 41 -20 38 -5 -2 -23 11 -40 31 -17 20 -34 33 -39 30
-5 -3 -8 -2 -7 3 1 4 -6 20 -16 35 -21 32 -18 67 10 138 17 44 17 48 -1 93
-15 40 -25 51 -62 68 -23 11 -43 23 -43 28 0 16 13 20 39 14 14 -4 38 -8 53
-8z m588 -74 c-15 -46 -20 -86 -20 -167 0 -80 -3 -105 -12 -102 -30 10 -34
124 -9 221 l18 68 -23 -28 c-13 -15 -23 -32 -23 -38 -1 -5 4 -3 9 5 7 10 10
11 10 2 0 -7 -6 -15 -14 -18 -8 -3 -18 -19 -21 -35 -8 -37 -25 -38 -25 0 0 33
64 121 88 121 4 0 13 9 20 21 23 36 24 14 2 -50z m3648 16 c28 -34 -16 -67
-54 -42 -28 18 -30 37 -8 59 16 17 40 11 62 -17z m-5405 -7 c3 -11 1 -18 -4
-14 -5 3 -9 12 -9 20 0 20 7 17 13 -6z m39 -10 c-12 -12 -22 -18 -22 -14 0 10
34 42 39 38 3 -2 -5 -13 -17 -24z m381 7 c-6 -10 128 -69 144 -62 8 2 12 1 9
-4 -8 -12 70 -45 85 -36 8 6 10 4 4 -5 -6 -10 -4 -12 9 -7 11 5 15 3 10 -5 -5
-8 -2 -9 10 -5 9 4 15 3 12 -1 -6 -10 62 -45 73 -38 21 13 4 -29 -26 -63 -18
-22 -40 -54 -47 -72 -9 -21 -21 -33 -34 -34 -12 -1 -19 2 -17 6 7 10 -25 20
-37 12 -6 -3 -8 -2 -5 4 6 10 -208 109 -230 107 -7 -1 -11 2 -8 6 6 10 -44 32
-57 24 -7 -5 -8 -2 -3 6 6 10 4 12 -9 7 -9 -4 -15 -3 -12 2 3 5 -1 11 -8 14
-21 8 -16 45 9 65 l20 17 -20 -25 -20 -25 23 19 c12 11 21 25 18 32 -3 7 3 18
12 26 16 12 16 11 2 -7 -11 -15 -7 -14 13 4 27 24 38 49 15 35 -6 -4 -9 -3 -5
2 3 5 21 9 40 9 19 0 33 -3 30 -8z m3839 -27 c-4 -28 -20 -39 -35 -24 -9 9 14
54 28 54 7 0 10 -11 7 -30z m78 -54 c-8 -22 -12 -25 -24 -14 -16 15 -10 38 10
38 8 0 14 6 15 13 0 7 2 8 5 1 3 -6 0 -23 -6 -38z m695 -22 c0 -10 -8 -20 -18
-22 -22 -4 -35 27 -16 39 20 12 34 5 34 -17z m-5045 -4 c0 -5 -8 -10 -17 -10
-15 0 -16 2 -3 10 19 12 20 12 20 0z m-60 -10 c8 -5 12 -11 10 -14 -3 -2 -14
2 -24 10 -22 15 -10 19 14 4z m1531 -32 c7 -24 41 -89 75 -145 86 -142 91
-160 64 -232 -12 -32 -20 -67 -18 -77 2 -11 -4 -20 -14 -22 -10 -2 -18 1 -18
7 0 6 8 8 18 5 14 -5 14 -3 -2 10 -11 9 -23 16 -28 16 -4 0 -8 7 -8 15 0 8 4
15 8 15 14 0 42 58 42 87 0 17 -26 71 -65 138 -64 107 -97 187 -88 213 9 22
20 13 34 -30z m-1431 18 c0 -2 -7 -7 -16 -10 -8 -3 -12 -2 -9 4 6 10 25 14 25
6z m735 -16 c3 -6 -1 -7 -9 -4 -18 7 -21 14 -7 14 6 0 13 -4 16 -10z m-810
-30 c3 -5 1 -10 -4 -10 -6 0 -11 5 -11 10 0 6 2 10 4 10 3 0 8 -4 11 -10z m49
-16 c3 -8 2 -12 -4 -9 -6 3 -10 10 -10 16 0 14 7 11 14 -7z m4623 -25 c5 -27
15 -36 67 -59 102 -47 400 -177 419 -183 18 -7 23 -32 8 -41 -4 -3 -26 3 -47
13 -53 26 -228 105 -346 156 -53 23 -100 40 -103 37 -3 -3 -5 -17 -5 -31 0
-14 -5 -33 -10 -41 -9 -13 -11 -13 -20 0 -5 8 -7 22 -4 30 4 8 9 34 11 57 7
50 -8 73 -46 73 -20 0 -23 2 -11 10 8 5 30 10 48 10 28 0 33 -4 39 -31z
m-4707 -12 c9 -3 5 -6 -11 -6 -16 -1 -26 4 -26 14 0 9 4 11 11 6 6 -4 18 -11
26 -14z m4250 3 c0 -5 -9 -10 -20 -10 -11 0 -20 5 -20 10 0 6 9 10 20 10 11 0
20 -4 20 -10z m-4185 -30 c3 -5 1 -10 -4 -10 -6 0 -11 5 -11 10 0 6 2 10 4 10
3 0 8 -4 11 -10z m-89 -25 c-3 -8 0 -15 6 -15 6 0 9 -2 6 -5 -3 -3 -12 -3 -21
1 -13 5 -14 9 -4 20 16 18 20 17 13 -1z m-100 -40 c-8 -8 -17 -11 -20 -6 -4 5
2 17 11 27 11 10 18 13 21 5 2 -6 -3 -18 -12 -26z m164 21 c0 -2 -7 -7 -16
-10 -8 -3 -12 -2 -9 4 6 10 25 14 25 6z m5291 -15 c20 -16 22 -23 13 -38 -21
-34 -84 -24 -84 13 0 14 27 44 40 44 4 0 18 -9 31 -19z m-5264 -14 c0 -8 -6
-14 -14 -14 -14 0 -17 10 -6 20 10 11 20 8 20 -6z m47 -2 c-4 -8 -8 -15 -10
-15 -2 0 -4 7 -4 15 0 8 4 15 10 15 5 0 7 -7 4 -15z m-134 -25 c0 -5 -5 -10
-11 -10 -5 0 -7 5 -4 10 3 6 8 10 11 10 2 0 4 -4 4 -10z m496 2 c-2 -4 -12
-100 -22 -212 -9 -113 -18 -206 -19 -208 -2 -2 -17 4 -34 13 -18 9 -37 13 -44
9 -7 -4 -9 -4 -5 1 5 5 -7 17 -25 29 -25 16 -28 21 -14 24 9 2 17 8 17 12 0
14 -59 42 -72 34 -7 -4 -8 -3 -4 4 11 18 -15 14 -35 -4 -13 -12 -22 -13 -37
-5 -11 6 -23 7 -27 3 -5 -4 -5 -2 -2 4 4 6 -5 16 -19 23 l-25 11 27 35 c14 19
29 35 31 35 3 0 -1 -8 -8 -17 -13 -16 -12 -17 4 -4 12 10 14 17 7 26 -7 8 -3
18 13 31 l22 19 -19 -22 c-17 -21 -10 -34 8 -15 4 4 12 7 17 7 5 0 8 3 7 6 -4
9 23 39 34 39 5 0 6 -6 2 -12 -5 -9 -2 -8 9 1 14 11 15 16 5 29 -11 13 -10 14
8 4 18 -9 24 -8 35 6 13 16 13 16 -5 2 -12 -9 -17 -10 -12 -3 4 7 16 18 28 24
16 8 19 8 13 -1 -4 -7 4 -4 19 5 14 9 23 21 20 26 -3 5 1 6 9 3 8 -3 18 0 23
7 5 8 3 10 -6 4 -8 -5 -11 -4 -6 3 4 6 14 8 23 5 12 -5 14 -3 8 7 -5 8 -4 11
1 7 6 -3 16 -2 24 4 18 11 33 12 26 1z m-402 -24 c-3 -4 -11 -5 -19 -1 -21 7
-19 12 4 10 11 0 18 -5 15 -9z m-74 -2 c0 -2 -7 -6 -15 -10 -8 -3 -15 -1 -15
4 0 6 7 10 15 10 8 0 15 -2 15 -4z m4009 -11 c1 -2 0 -9 -4 -15 -5 -8 -23 -9
-55 -5 -64 9 -156 -15 -240 -63 -85 -48 -92 -50 -48 -9 48 44 127 86 180 97
37 7 157 4 167 -5z m696 -17 c35 -16 61 -71 49 -105 -29 -83 -170 -98 -210
-22 -51 100 49 178 161 127z m-4565 4 c0 -5 -7 -9 -15 -9 -8 0 -15 4 -15 9 0
4 7 8 15 8 8 0 15 -4 15 -8z m110 -45 c0 -2 -9 -12 -20 -22 -24 -21 -27 -14
-4 9 15 15 24 20 24 13z m-60 -31 c0 -2 -7 -7 -16 -10 -8 -3 -12 -2 -9 4 6 10
25 14 25 6z m-206 -58 c6 -5 2 -8 -11 -8 -12 0 -24 -6 -26 -12 -3 -8 -6 -6 -6
5 -1 9 5 17 12 17 9 0 8 3 -2 9 -8 5 -10 14 -6 21 6 9 10 8 18 -6 6 -11 15
-22 21 -26z m756 29 c0 -4 5 -5 10 -2 39 24 -5 -92 -85 -222 -25 -42 -25 -42
-5 -53 11 -6 26 -8 32 -4 7 4 8 3 4 -4 -7 -11 -3 -14 27 -16 6 -1 20 -8 30
-17 17 -16 17 -18 1 -53 -21 -42 -16 -43 -151 20 l-92 42 55 104 c122 227 116
218 146 216 16 -1 28 -6 28 -11z m-714 -56 c-9 -10 -13 -21 -9 -24 3 -4 1 -7
-5 -7 -21 0 -22 19 -2 30 11 6 19 14 19 18 -3 16 3 26 8 14 3 -7 -2 -21 -11
-31z m74 19 c0 -5 -7 -10 -16 -10 -8 0 -12 5 -9 10 3 6 10 10 16 10 5 0 9 -4
9 -10z m30 -6 c0 -8 -5 -12 -10 -9 -6 4 -8 11 -5 16 9 14 15 11 15 -7z m3680
-38 c-6 -6 -26 -15 -45 -21 l-35 -10 74 -84 c41 -46 82 -102 92 -125 10 -22
21 -43 25 -46 3 -3 16 -24 27 -46 21 -41 23 -106 6 -184 -6 -25 -6 -25 17 3
33 43 63 50 127 32 68 -20 99 -40 118 -76 47 -92 -33 -188 -145 -173 -93 12
-147 68 -139 145 2 21 1 36 -2 33 -7 -7 -90 249 -85 264 2 6 -1 12 -8 12 -7 0
-8 3 -2 8 6 4 11 19 12 34 1 21 -16 47 -74 113 -41 48 -73 88 -70 91 2 2 26
15 53 28 48 23 77 25 54 2z m-3746 6 c3 -5 -1 -9 -9 -9 -8 0 -12 4 -9 9 3 4 7
8 9 8 2 0 6 -4 9 -8z m-149 -32 c3 -5 1 -10 -4 -10 -6 0 -11 5 -11 10 0 6 2
10 4 10 3 0 8 -4 11 -10z m4695 -76 c91 -41 168 -78 172 -82 4 -4 3 -14 -2
-21 -7 -12 -39 0 -173 63 -90 42 -180 79 -200 83 -48 7 -178 -22 -253 -58 -69
-32 -88 -55 -120 -147 -12 -35 -24 -66 -28 -69 -20 -21 8 128 33 176 35 65
266 149 371 134 19 -2 109 -38 200 -79z m-4590 60 c0 -8 -4 -12 -10 -9 -5 3
-10 10 -10 16 0 5 5 9 10 9 6 0 10 -7 10 -16z m-35 -4 c3 -6 -1 -7 -9 -4 -18
7 -21 14 -7 14 6 0 13 -4 16 -10z m1073 -49 c12 -11 22 -22 22 -26 0 -5 -36
-74 -81 -156 l-81 -148 -43 21 -44 21 16 31 c32 63 136 251 146 264 13 17 38
14 65 -7z m-1075 -10 c3 -13 0 -18 -7 -15 -7 3 -13 11 -13 19 0 22 14 18 20
-4z m111 10 c3 -5 -1 -11 -9 -14 -9 -4 -12 -1 -8 9 6 16 10 17 17 5z m3336
-27 c0 -3 -18 -35 -40 -72 -70 -116 -105 -279 -82 -379 8 -37 7 -42 -9 -46
-15 -4 -18 -11 -12 -38 4 -22 3 -30 -5 -25 -5 3 -12 2 -14 -4 -1 -6 -2 56 0
137 3 153 15 220 54 298 39 76 108 159 108 129z m276 -30 c90 -43 82 -181 -13
-221 -110 -45 -233 15 -233 114 0 88 149 153 246 107z m-3759 -30 c12 -12 13
-18 4 -27 -10 -9 -12 -9 -9 2 2 7 -3 16 -11 19 -8 3 -11 0 -7 -7 4 -7 1 -9 -8
-5 -12 5 -13 9 -3 20 15 17 15 17 34 -2z m223 6 c0 -5 -7 -10 -16 -10 -8 0
-12 5 -9 10 3 6 10 10 16 10 5 0 9 -4 9 -10z m-140 -21 c0 -6 -4 -7 -10 -4 -5
3 -10 11 -10 16 0 6 5 7 10 4 6 -3 10 -11 10 -16z m4290 16 c0 -6 -40 -87 -46
-94 -1 -1 -7 0 -13 3 -12 8 2 52 26 78 16 17 33 24 33 13z m-3026 -16 c-1 -3
29 -21 68 -40 114 -55 150 -126 108 -214 -12 -25 -35 -59 -51 -75 l-30 -29 12
-60 c7 -33 11 -63 8 -66 -14 -13 -90 30 -109 61 -11 20 -28 35 -40 35 -11 1
-33 2 -49 3 -35 1 -69 30 -87 73 -28 64 -16 104 74 260 33 58 38 62 68 60 18
-1 30 -5 28 -8z m1063 -32 c75 -82 21 -197 -92 -197 -80 0 -145 53 -145 119 0
74 64 124 149 118 47 -3 59 -9 88 -40z m2551 17 c15 -10 22 -24 20 -37 -4 -30
-57 -36 -81 -9 -15 16 -15 20 -1 40 18 26 32 27 62 6z m-4673 -34 c3 -5 1 -10
-4 -10 -6 0 -11 5 -11 10 0 6 2 10 4 10 3 0 8 -4 11 -10z m-382 -18 c-10 -11
-21 -17 -25 -15 -11 6 14 32 30 33 8 0 6 -7 -5 -18z m270 10 c2 7 7 10 11 7 3
-3 -2 -13 -13 -23 -17 -16 -19 -16 -24 4 -4 17 -3 19 8 10 10 -8 14 -7 18 2z
m84 -14 c-3 -8 -6 -5 -6 6 -1 11 2 17 5 13 3 -3 4 -12 1 -19z m3938 -51 c-6
-21 7 -28 165 -97 151 -67 203 -100 154 -100 -17 0 -320 127 -341 143 -16 12
-17 49 -1 65 19 19 29 14 23 -11z m-4011 -2 c-4 -8 -8 -15 -10 -15 -2 0 -4 7
-4 15 0 8 4 15 10 15 5 0 7 -7 4 -15z m42 -24 c0 -14 -4 -17 -16 -12 -8 5 -22
6 -30 4 -13 -4 -13 -3 0 6 8 5 17 8 21 5 4 -2 10 0 14 6 9 14 11 13 11 -9z
m58 12 c4 -5 13 -8 19 -8 7 0 13 -8 15 -18 3 -16 1 -17 -20 -7 -22 10 -22 10
-4 -4 10 -9 23 -13 29 -9 7 4 7 -9 3 -38 -7 -38 -15 -139 -16 -191 0 -21 -30
-24 -48 -6 -7 7 -12 22 -12 34 0 23 -24 38 -43 27 -7 -3 -9 -3 -5 2 5 5 -1 14
-12 22 -15 11 -23 11 -39 1 -16 -9 -23 -9 -37 3 -15 12 -16 12 -9 0 5 -10 4
-12 -3 -7 -22 13 -12 35 33 77 44 40 58 66 33 56 -7 -2 -12 -10 -10 -16 1 -7
-2 -9 -9 -5 -8 5 -9 3 -4 -6 6 -9 4 -11 -5 -5 -9 6 -11 4 -5 -6 7 -11 6 -12
-7 -2 -18 15 -32 5 -17 -13 7 -8 7 -14 -1 -19 -6 -4 -9 -3 -8 2 1 4 -3 17 -9
29 -11 18 -9 20 10 19 28 -3 57 22 50 43 -4 15 -3 15 6 2 7 -10 11 -11 11 -2
0 6 5 12 11 12 5 0 7 -4 4 -10 -15 -24 8 -31 31 -9 13 12 21 25 18 30 -2 4 4
12 13 18 22 13 28 13 37 4z m4287 -13 c10 -6 19 -18 19 -28 0 -15 -2 -15 -10
-2 -8 13 -12 12 -25 -7 -16 -23 -40 -22 -49 2 -5 15 18 45 35 45 6 0 19 -5 30
-10z m-4441 -29 c0 -12 -20 -25 -27 -18 -7 7 6 27 18 27 5 0 9 -4 9 -9z m90 5
c0 -2 -8 -10 -17 -17 -16 -13 -17 -12 -4 4 13 16 21 21 21 13z m-130 -28 c0
-4 -6 -8 -14 -8 -8 0 -17 4 -20 8 -2 4 4 8 15 8 10 0 19 -4 19 -8z m-94 -38
c9 0 13 -4 10 -9 -10 -16 -45 -1 -38 17 4 10 7 12 10 4 2 -7 10 -12 18 -12z
m54 5 c0 -8 -4 -15 -10 -15 -5 0 -7 7 -4 15 4 8 8 15 10 15 2 0 4 -7 4 -15z
m1866 -90 c109 -103 23 -295 -133 -295 -38 0 -70 10 -141 44 l-91 45 26 48
c14 26 52 96 85 155 l59 106 81 -36 c45 -21 96 -51 114 -67z m-2106 86 c0 -13
-31 -43 -38 -36 -3 3 3 14 14 24 22 23 24 24 24 12z m3713 -18 c-4 -16 -7 -66
-7 -113 2 -129 55 -259 128 -308 17 -11 144 -73 281 -137 345 -161 331 -154
313 -171 -12 -13 -52 3 -304 122 -159 76 -308 150 -331 166 -49 33 -85 101
-115 221 -22 87 -20 148 6 211 18 43 40 49 29 9z m-3689 -8 c-4 -8 -10 -15
-15 -15 -4 0 -6 7 -3 15 4 8 10 15 15 15 4 0 6 -7 3 -15z m84 -12 c-10 -2 -26
-2 -35 0 -10 3 -2 5 17 5 19 0 27 -2 18 -5z m49 -25 c-3 -7 -5 -2 -5 12 0 14
2 19 5 13 2 -7 2 -19 0 -25z m-102 -15 c3 -15 12 -31 18 -35 9 -6 9 -8 0 -8
-7 0 -13 -6 -13 -14 0 -7 -9 -16 -21 -19 -12 -3 -18 -10 -15 -15 3 -6 -1 -13
-10 -16 -8 -3 -12 -11 -8 -17 4 -7 3 -9 -4 -5 -6 3 -16 -2 -22 -11 -11 -17
-11 -17 -6 1 4 10 1 25 -5 32 -14 17 2 19 19 2 12 -12 15 -7 11 18 0 4 5 10
12 14 7 5 2 7 -14 7 -14 -1 -23 -5 -20 -9 2 -5 0 -8 -6 -8 -19 0 -22 20 -7 36
9 8 16 11 16 5 0 -6 7 -8 15 -5 10 4 13 13 10 25 -5 15 -1 19 16 19 18 0 19
-2 9 -15 -12 -15 -5 -54 7 -41 15 14 14 56 -2 62 -8 3 -12 10 -9 15 10 17 22
9 29 -18z m45 -3 c0 -5 -5 -10 -11 -10 -5 0 -7 5 -4 10 3 6 8 10 11 10 2 0 4
-4 4 -10z m137 4 c-3 -3 -12 -4 -19 -1 -8 3 -5 6 6 6 11 1 17 -2 13 -5z m-102
-14 c3 -5 -1 -10 -10 -10 -9 0 -13 5 -10 10 3 6 8 10 10 10 2 0 7 -4 10 -10z
m725 -8 c3 -1 3 -28 2 -59 -4 -54 8 -71 14 -20 1 12 3 24 3 27 2 10 41 9 41
-1 0 -5 7 -9 15 -9 23 0 19 -12 -36 -121 -59 -118 -71 -119 -79 -7 l-5 72 -28
-52 c-22 -41 -33 -51 -51 -50 -31 3 -28 18 24 118 25 47 44 90 44 96 -1 9 34
12 56 6z m-665 -12 c-3 -5 -12 -10 -18 -10 -7 0 -6 4 3 10 19 12 23 12 15 0z
m-78 -41 c-18 -10 -18 -12 -1 -30 9 -10 12 -19 6 -19 -6 0 -17 -3 -26 -6 -25
-9 -32 24 -10 46 11 10 26 19 34 19 11 0 10 -2 -3 -10z m68 -29 c-3 -5 -10
-10 -16 -10 -5 0 -9 5 -9 10 0 6 7 10 16 10 8 0 12 -4 9 -10z m3628 -20 c-3
-11 -9 -20 -14 -20 -10 0 -12 33 -3 43 12 12 22 -3 17 -23z m67 5 c0 -8 -9
-19 -20 -25 -17 -9 -20 -8 -20 8 0 10 3 22 7 25 12 12 33 7 33 -8z m-3820 -15
c13 0 18 -7 17 -20 -1 -23 -17 -28 -17 -5 0 8 -7 15 -15 15 -8 0 -15 -4 -15
-10 0 -5 -8 -10 -17 -10 -15 0 -16 -2 -3 -10 12 -8 11 -10 -7 -10 -13 0 -23
-4 -23 -10 0 -5 -7 -10 -15 -10 -8 0 -15 2 -15 5 0 10 52 55 60 50 4 -2 11 5
15 18 4 13 8 17 12 10 2 -7 13 -13 23 -13z m165 0 c3 -5 1 -10 -4 -10 -6 0
-11 5 -11 10 0 6 2 10 4 10 3 0 8 -4 11 -10z m2279 -16 c41 -22 75 -53 93 -87
18 -36 11 -54 -23 -68 -24 -9 -31 -6 -63 25 -47 46 -80 58 -125 45 -44 -12
-66 -42 -66 -92 0 -31 7 -46 34 -73 29 -29 41 -34 80 -34 34 0 48 -5 56 -19
21 -40 -16 -71 -84 -71 -101 0 -196 102 -196 210 0 65 38 128 95 158 67 35
137 37 199 6z m-2314 -10 c0 -2 -7 -4 -15 -4 -8 0 -15 4 -15 10 0 5 7 7 15 4
8 -4 15 -8 15 -10z m-67 -7 c3 -8 -1 -14 -9 -14 -15 0 -18 9 -7 20 9 9 10 9
16 -6z m3337 -28 c0 -44 -62 -69 -75 -29 -3 11 -3 24 0 30 8 13 75 13 75 -1z
m-3402 -17 c-8 -9 -13 -10 -18 -1 -6 8 -9 8 -14 0 -11 -17 -26 -13 -20 4 4 9
17 14 35 13 22 -2 26 -5 17 -16z m42 8 c0 -5 -2 -10 -4 -10 -3 0 -8 5 -11 10
-3 6 -1 10 4 10 6 0 11 -4 11 -10z m1064 -119 c-31 -58 -59 -109 -63 -113 -4
-4 -16 -1 -28 7 -21 15 -21 15 28 106 26 51 46 96 42 102 -3 6 -1 7 4 4 6 -4
13 0 17 8 4 12 10 13 31 3 l25 -11 -56 -106z m-1171 89 c3 -12 0 -20 -7 -20
-6 0 -12 9 -13 20 -1 11 2 20 6 20 5 0 11 -9 14 -20z m4667 -21 c0 -23 -27
-36 -43 -20 -8 8 -8 11 0 11 7 0 15 9 18 20 8 24 25 17 25 -11z m-4625 -8 c3
-5 1 -12 -5 -16 -5 -3 -10 -1 -10 5 0 6 -5 8 -12 4 -7 -4 -8 -3 -4 4 9 14 23
15 31 3z m4520 -25 c33 -16 70 -32 83 -37 19 -8 21 -12 12 -30 -6 -11 -14 -19
-18 -17 -38 20 -146 68 -152 68 -4 0 -13 6 -19 14 -10 11 -8 17 6 25 10 6 20
9 23 8 3 -2 32 -16 65 -31z m-4629 -25 c-5 -32 -3 -42 11 -50 17 -9 17 -10 1
-16 -10 -4 -15 -11 -12 -16 3 -5 -1 -6 -9 -3 -9 3 -13 13 -10 24 7 27 -5 72
-17 65 -14 -9 -12 3 3 20 25 29 40 18 33 -24z m2934 -26 c72 -36 130 -67 130
-70 0 -2 -8 -20 -17 -40 -19 -39 -30 -42 -74 -19 -17 8 -32 14 -33 12 -2 -2
-29 -54 -62 -115 -32 -62 -63 -113 -69 -113 -14 0 -75 38 -75 47 0 5 25 57 55
116 30 59 55 109 55 111 0 1 -24 13 -52 26 -29 13 -54 25 -56 26 -8 5 44 84
56 84 7 0 71 -29 142 -65z m-2880 41 c0 -2 -9 -6 -20 -9 -11 -3 -18 -1 -14 4
5 9 34 13 34 5z m-25 -35 c3 -5 1 -12 -5 -16 -5 -3 -10 1 -10 9 0 18 6 21 15
7z m65 -5 c0 -2 -9 -6 -20 -9 -11 -3 -20 -1 -20 4 0 5 9 9 20 9 11 0 20 -2 20
-4z m-177 -40 c-6 -23 -13 -31 -19 -18 -3 6 -10 10 -15 6 -10 -6 -13 9 -3 18
7 8 39 3 37 -6z m1690 -11 c20 -14 37 -28 37 -30 0 -3 -11 -12 -25 -21 -24
-16 -26 -15 -46 10 -24 31 -52 33 -79 6 -32 -32 -22 -125 10 -105 9 5 11 4 6
-3 -5 -8 4 -12 29 -12 32 0 36 -3 33 -22 -2 -19 -10 -24 -40 -26 -31 -3 -44 3
-75 32 -35 31 -38 39 -38 86 0 46 4 55 33 81 43 38 101 40 155 4z m-1655 -16
c-3 -8 -7 -3 -11 10 -4 17 -3 21 5 13 5 -5 8 -16 6 -23z m-85 4 c8 -7 -11 -33
-24 -33 -4 0 -7 9 -6 20 1 20 17 27 30 13z m177 -8 c-7 -8 -17 -15 -23 -15 -6
0 -2 7 9 15 25 19 30 19 14 0z m-103 -20 c5 -4 3 -5 -4 -2 -6 4 -13 2 -15 -4
-2 -7 -9 -5 -17 5 -12 14 -11 16 7 13 12 -2 25 -7 29 -12z m40 -1 c-3 -3 -12
-4 -19 -1 -8 3 -5 6 6 6 11 1 17 -2 13 -5z m4664 -25 c23 -45 -38 -80 -75 -43
-19 19 -20 25 -3 46 24 31 60 30 78 -3z m-4751 11 c0 -5 -7 -10 -15 -10 -8 0
-15 5 -15 10 0 6 7 10 15 10 8 0 15 -4 15 -10z m76 -15 c-8 -8 -22 -15 -31
-15 -11 0 -15 -5 -12 -15 4 -8 2 -17 -3 -20 -6 -4 -10 3 -10 14 0 31 3 35 24
38 11 2 22 6 25 8 2 3 8 5 13 5 5 0 3 -7 -6 -15z m3200 -6 c19 -11 34 -25 34
-30 0 -5 -34 -74 -76 -153 l-76 -144 -39 17 c-22 10 -41 20 -44 23 -8 8 145
308 157 308 6 0 26 -9 44 -21z m-3303 -13 c-1 -13 4 -16 18 -13 11 3 19 0 19
-7 0 -20 -39 -16 -45 4 -5 16 -11 17 -31 10 -18 -7 -24 -6 -24 5 0 9 6 12 15
9 8 -4 15 -1 15 6 0 6 8 10 18 8 9 -2 16 -12 15 -22z m157 3 c0 -4 -8 -13 -17
-18 -15 -9 -16 -12 -3 -20 8 -5 18 -7 22 -5 4 3 8 0 8 -6 0 -7 -8 -9 -20 -5
-16 5 -20 2 -20 -14 0 -24 -25 -28 -46 -7 -17 17 -19 46 -3 46 6 0 9 -6 6 -14
-5 -14 10 -36 25 -36 13 0 9 45 -4 59 -7 7 -8 12 -3 11 19 -4 50 2 38 7 -7 2
-13 9 -13 14 0 4 7 6 15 3 8 -4 15 -10 15 -15z m40 17 c0 -2 -7 -7 -16 -10 -8
-3 -12 -2 -9 4 6 10 25 14 25 6z m20 -42 c0 -2 -11 -4 -25 -4 -14 0 -25 4 -25
9 0 4 11 6 25 3 14 -2 25 -6 25 -8z m60 -14 c0 -5 -5 -10 -11 -10 -5 0 -7 5
-4 10 3 6 8 10 11 10 2 0 4 -4 4 -10z m35 0 c3 -5 1 -10 -4 -10 -6 0 -11 5
-11 10 0 6 2 10 4 10 3 0 8 -4 11 -10z m-95 -10 c0 -5 -8 -10 -17 -10 -15 0
-16 2 -3 10 19 12 20 12 20 0z m-20 -36 c0 -2 -7 -4 -15 -4 -8 0 -15 4 -15 10
0 5 7 7 15 4 8 -4 15 -8 15 -10z m3336 -5 c19 -11 34 -23 34 -25 0 -7 -131
-266 -147 -291 l-15 -22 -39 19 c-21 11 -39 25 -39 32 0 19 153 308 163 308 5
0 25 -9 43 -21z m-3461 1 c3 -6 -1 -7 -9 -4 -18 7 -21 14 -7 14 6 0 13 -4 16
-10z m80 1 c3 -5 1 -12 -5 -16 -5 -3 -10 1 -10 9 0 18 6 21 15 7z m125 -1 c0
-5 -7 -7 -15 -4 -8 4 -15 8 -15 10 0 2 7 4 15 4 8 0 15 -4 15 -10z m-230 -42
c0 -5 -10 -8 -22 -7 -13 0 -17 3 -10 6 6 2 12 9 12 14 0 6 -4 7 -10 4 -11 -7
-14 8 -3 18 6 7 32 -21 33 -35z m60 7 c9 6 9 3 0 -15 -10 -18 -14 -20 -21 -9
-5 8 -9 21 -9 29 0 12 2 13 9 1 5 -7 14 -10 21 -6z m2108 -15 c37 -23 43 -55
11 -65 -15 -5 -25 -1 -35 14 -22 31 -78 29 -100 -4 -31 -48 5 -115 63 -115 36
0 44 -18 18 -40 -12 -10 -24 -10 -55 -1 -101 30 -118 183 -25 222 35 14 89 9
123 -11z m-2138 -20 c0 -5 -2 -10 -4 -10 -3 0 -8 5 -11 10 -3 6 -1 10 4 10 6
0 11 -4 11 -10z m-13 -26 c-3 -3 -12 -4 -19 -1 -8 3 -5 6 6 6 11 1 17 -2 13
-5z m3654 -56 c43 -85 110 -198 118 -198 3 0 17 25 29 55 13 29 30 62 37 72
12 16 15 16 49 -2 20 -11 36 -25 36 -31 0 -7 -22 -61 -48 -120 -27 -60 -57
-133 -67 -163 l-18 -54 -28 34 c-16 19 -57 78 -91 131 -35 54 -67 98 -71 98
-4 0 -16 -20 -27 -45 -11 -25 -26 -48 -34 -51 -14 -5 -76 21 -76 32 0 15 145
304 152 304 4 0 22 -28 39 -62z m-3631 47 c0 -2 -9 -9 -20 -15 -12 -6 -20 -7
-20 -1 0 5 8 12 18 14 9 3 18 5 20 6 1 0 2 -1 2 -4z m115 -5 c3 -5 1 -10 -4
-10 -6 0 -11 5 -11 10 0 6 2 10 4 10 3 0 8 -4 11 -10z m-219 -40 c0 -11 -6
-15 -18 -12 -26 7 -23 29 5 29 7 0 13 -8 13 -17z m-939 -30 c9 0 31 -11 49
-25 18 -14 37 -25 41 -25 5 0 18 -8 29 -18 20 -19 26 -22 45 -22 8 0 8 -4 0
-14 -10 -12 -7 -14 19 -10 21 4 32 1 36 -10 3 -9 9 -14 13 -12 7 5 36 -15 42
-29 2 -5 7 -9 11 -7 5 1 8 -6 8 -15 0 -15 2 -16 10 -3 6 9 10 10 10 3 0 -7 11
-10 28 -7 26 4 26 4 5 -9 -21 -12 -22 -13 -4 -24 12 -8 22 -8 32 -1 11 8 11 9
-3 4 -10 -3 -20 -1 -23 4 -4 6 2 10 12 10 19 0 60 -39 55 -53 -1 -5 2 -6 8 -2
5 3 20 8 32 10 16 4 19 2 10 -7 -7 -7 -12 -16 -12 -21 0 -5 7 -1 16 8 15 15
18 15 35 -1 11 -9 19 -14 19 -10 0 4 7 0 16 -8 8 -9 12 -20 9 -26 -3 -5 0 -10
7 -10 9 0 9 -3 -2 -10 -9 -6 -10 -10 -3 -10 6 0 15 5 18 10 3 6 11 10 17 10 6
0 3 -9 -6 -19 -17 -19 -17 -19 5 -14 15 4 27 0 37 -13 14 -18 14 -18 8 3 -4
12 -2 24 4 28 5 3 10 1 10 -4 0 -6 3 -10 8 -9 12 4 82 -34 82 -44 0 -5 4 -6
10 -3 14 9 68 -25 73 -47 6 -21 -4 -23 -21 -6 -8 8 -12 8 -12 1 0 -15 26 -24
46 -16 13 5 13 7 2 14 -9 6 -6 9 10 9 13 0 21 -4 18 -9 -3 -5 8 -14 25 -21 20
-9 26 -15 18 -21 -7 -4 -19 -5 -28 -3 -9 2 -2 -2 14 -10 17 -8 35 -15 40 -16
6 0 16 -9 22 -20 11 -17 10 -18 -5 -13 -9 3 -22 10 -28 14 -6 5 -14 6 -17 2
-4 -3 -7 -1 -7 6 0 7 -4 9 -10 6 -5 -3 -10 -1 -10 5 0 6 -4 8 -10 5 -5 -3 -10
-1 -10 5 0 6 -4 9 -8 6 -5 -3 -25 6 -45 19 -20 14 -43 25 -51 25 -9 0 -16 5
-16 11 0 5 -4 8 -9 4 -5 -3 -17 2 -25 11 -9 8 -16 13 -16 9 0 -7 -93 46 -101
58 -3 5 -10 8 -15 8 -21 -2 -44 11 -38 21 4 6 2 8 -4 4 -14 -9 -63 14 -55 27
3 6 2 7 -4 4 -13 -8 -156 67 -146 77 4 4 -1 4 -11 0 -15 -6 -17 -4 -11 6 5 9
4 11 -3 6 -7 -4 -12 -2 -12 4 0 6 -4 9 -9 5 -5 -3 -16 2 -25 10 -8 9 -17 15
-18 14 -10 -6 -47 14 -42 23 4 6 2 8 -4 5 -15 -10 -43 3 -35 16 3 5 1 7 -5 3
-11 -6 -114 49 -120 65 -2 5 -9 9 -16 9 -7 0 -17 5 -24 12 -9 9 -7 14 6 25 16
12 16 13 -1 7 -9 -3 -24 -1 -32 6 -13 10 -15 9 -15 -9 0 -12 5 -19 10 -16 6 3
10 2 10 -3 0 -19 160 -115 408 -244 57 -30 111 -61 121 -69 9 -8 24 -15 32
-17 7 -2 17 -9 21 -15 4 -7 8 -9 8 -5 0 12 78 -32 83 -46 3 -8 17 -13 31 -13
30 0 99 -49 90 -64 -3 -5 0 -8 8 -7 7 2 12 -2 11 -9 -2 -7 4 -10 13 -6 8 3 21
-2 28 -12 10 -14 16 -15 34 -6 15 8 22 8 23 1 1 -5 2 -14 3 -19 0 -5 5 -13 10
-18 5 -5 6 -3 2 5 -10 17 5 15 32 -4 12 -8 19 -20 16 -26 -5 -7 0 -9 14 -6 12
4 20 3 17 -2 -6 -10 23 -22 35 -15 5 3 12 0 16 -6 5 -8 3 -9 -6 -4 -8 5 -11 4
-7 -3 4 -5 15 -9 25 -7 22 3 44 -14 35 -29 -4 -6 1 -5 9 2 15 12 18 9 24 -22
3 -20 10 -33 15 -30 5 3 7 10 4 15 -4 5 -2 9 4 9 5 0 13 -5 16 -11 5 -7 14 -4
28 8 16 13 18 14 9 2 -10 -13 -9 -19 5 -30 9 -8 14 -9 11 -4 -4 6 -2 17 4 25
8 13 9 13 5 -1 -3 -9 -1 -22 4 -30 5 -8 9 -9 9 -3 0 6 9 10 21 9 20 -1 39 -20
39 -40 0 -5 -4 -4 -9 3 -7 11 -9 10 -14 -3 -4 -9 -3 -13 3 -10 6 3 10 0 10 -7
0 -10 3 -9 10 2 5 8 12 11 16 7 4 -4 13 -2 20 4 8 7 14 6 20 -2 4 -7 3 -9 -4
-5 -6 3 -13 2 -17 -4 -4 -6 -11 -8 -16 -5 -5 4 -9 1 -9 -4 0 -6 10 -11 23 -11
l22 -1 -23 -19 c-13 -10 -30 -16 -38 -13 -12 4 -12 7 3 18 15 11 13 13 -17 11
-52 -4 -97 25 -91 57 1 5 -3 6 -9 2 -6 -3 -8 -11 -5 -16 3 -5 -1 -6 -9 -3 -9
3 -14 10 -11 14 3 4 -2 11 -11 14 -8 3 -12 2 -9 -4 3 -6 -1 -7 -9 -4 -9 3 -13
10 -10 15 3 5 0 10 -5 10 -23 3 -28 5 -69 23 -23 10 -39 23 -35 29 3 6 1 7 -5
3 -11 -7 -112 39 -123 56 -3 5 -9 9 -13 9 -20 -3 -26 0 -20 11 4 6 3 8 -4 5
-15 -10 -43 3 -35 16 4 6 0 8 -8 5 -18 -7 -132 55 -122 66 4 4 -1 4 -11 0 -13
-5 -17 -4 -12 4 5 8 1 10 -10 5 -13 -5 -15 -3 -9 7 5 8 4 11 -3 6 -6 -3 -18 1
-26 10 -9 8 -16 12 -16 7 0 -4 -5 0 -11 9 -5 9 -15 15 -22 12 -7 -2 -22 3 -33
13 -11 10 -26 19 -34 21 -8 2 -95 46 -195 99 -99 53 -192 102 -206 110 -15 7
-32 20 -39 28 -7 8 -21 15 -32 15 -10 0 -16 5 -13 10 3 6 1 10 -4 10 -6 0 -11
13 -11 28 0 15 -5 33 -12 40 -9 9 -9 12 1 12 7 0 9 5 6 10 -4 6 -11 8 -16 5
-10 -7 -12 35 -3 59 6 15 8 15 21 -1 8 -10 12 -12 8 -5 -3 6 -3 17 1 24 6 9 9
9 12 0 2 -7 11 -12 19 -12z m978 10 c3 -5 2 -10 -4 -10 -5 0 -13 5 -16 10 -3
6 -2 10 4 10 5 0 13 -4 16 -10z m101 -25 c-11 -9 -15 -19 -10 -27 6 -10 4 -10
-9 1 -13 10 -15 17 -6 27 6 8 15 11 20 8 5 -3 9 0 9 7 0 7 3 9 7 5 5 -4 0 -14
-11 -21z m-120 2 c4 -4 2 -7 -4 -7 -7 0 -12 -7 -12 -15 0 -22 15 -18 28 8 6
13 11 16 11 7 0 -8 -3 -19 -7 -25 -11 -16 -47 -41 -39 -28 10 16 -2 43 -20 43
-12 0 -13 3 -4 14 12 14 35 16 47 3z m56 -9 c-14 -14 -16 -42 -2 -33 6 3 10 2
10 -3 0 -6 -7 -13 -16 -16 -8 -3 -12 -10 -9 -16 7 -12 -5 -13 -23 -1 -11 7
-11 9 2 14 9 4 16 17 16 31 0 13 6 27 13 29 20 9 22 8 9 -5z m2531 -24 c31
-20 37 -30 37 -59 0 -36 -28 -65 -64 -65 -17 0 -18 -5 -12 -65 4 -36 3 -65 -1
-65 -5 0 -19 7 -31 16 -19 13 -22 24 -22 75 0 70 -14 75 -43 16 -20 -39 -37
-46 -57 -22 -10 12 -5 27 26 82 62 113 73 125 103 118 14 -3 43 -17 64 -31z
m-2499 -45 c-29 -19 -41 -19 -29 0 3 6 11 8 17 5 7 -5 9 0 6 14 -5 19 -4 20
14 11 20 -11 20 -12 -8 -30z m56 31 c0 -5 -4 -10 -10 -10 -5 0 -10 5 -10 10 0
6 5 10 10 10 6 0 10 -4 10 -10z m-130 -52 c0 -13 -23 -5 -28 10 -2 7 2 10 12
6 9 -3 16 -11 16 -16z m50 -28 c0 -5 -7 -7 -15 -4 -8 4 -15 8 -15 10 0 2 7 4
15 4 8 0 15 -4 15 -10z m4250 -65 c54 -28 84 -58 105 -107 20 -49 19 -84 -4
-133 -52 -112 -180 -156 -296 -101 -134 62 -164 206 -66 309 65 69 165 81 261
32z m-4150 -11 c0 -2 -7 -4 -15 -4 -8 0 -15 4 -15 10 0 5 7 7 15 4 8 -4 15 -8
15 -10z m2779 4 c18 -11 17 -16 -27 -96 -43 -81 -44 -85 -27 -98 22 -16 41
-18 50 -4 3 6 10 10 16 10 15 0 10 -19 -11 -40 -47 -47 -128 -2 -117 65 5 27
83 175 93 175 2 0 13 -5 23 -12z m-3806 -42 c23 -13 134 -74 247 -134 113 -60
246 -132 295 -160 50 -27 138 -74 198 -104 59 -30 104 -58 100 -63 -5 -4 -3
-5 4 -2 6 4 44 -10 83 -32 55 -29 66 -38 46 -38 -14 0 -23 3 -20 8 3 5 -5 8
-18 6 -15 -1 -22 3 -20 12 2 9 -4 12 -18 8 -13 -3 -23 0 -27 9 -3 8 -9 12 -13
9 -5 -3 -19 5 -31 17 -12 13 -19 18 -15 11 5 -8 -1 -9 -23 0 -17 6 -27 16 -24
21 4 6 -4 2 -16 -8 -32 -29 -49 -28 -45 0 2 25 -26 50 -41 36 -5 -4 -6 0 -3 8
4 11 0 16 -13 16 -11 0 -19 -6 -19 -14 0 -7 4 -11 8 -8 5 3 9 -1 9 -9 0 -11
-4 -12 -14 -4 -7 6 -20 9 -28 5 -9 -3 -13 -2 -10 3 11 19 -34 34 -48 16 -5 -6
-7 -3 -3 7 6 20 -10 35 -17 16 -3 -10 -8 -10 -18 1 -12 12 -12 13 1 6 13 -8
13 -6 1 8 -10 12 -18 14 -31 7 -27 -15 -34 -12 -19 6 12 15 11 16 -8 10 -12
-4 -24 -2 -28 4 -3 5 0 10 7 10 8 0 6 4 -4 11 -12 7 -25 6 -40 -2 -19 -9 -21
-9 -11 2 19 19 -33 52 -59 38 -16 -8 -24 -5 -43 16 -14 14 -26 26 -27 28 -8 5
-35 -29 -30 -37 3 -5 0 -6 -6 -3 -5 4 -8 16 -5 27 3 11 1 20 -5 20 -5 0 -12
-10 -16 -22 -5 -19 -8 -20 -15 -8 -7 10 -6 17 2 22 9 5 9 10 -1 20 -11 11 -13
10 -10 -2 2 -9 -4 -15 -17 -15 -13 0 -19 6 -18 19 1 16 0 17 -14 4 -13 -14
-18 -13 -41 9 -14 13 -32 21 -39 18 -8 -2 -12 -1 -9 4 5 8 -42 36 -56 33 -5
-1 -8 7 -8 18 0 11 -5 19 -11 18 -7 -2 -12 11 -13 32 0 23 4 34 12 32 10 -2
10 2 2 18 -13 25 -25 27 -15 3 4 -12 3 -14 -3 -8 -5 6 -12 22 -16 37 -6 26 -5
27 20 18 14 -6 44 -21 67 -34z m911 12 c-5 -8 -2 -9 9 -5 9 3 19 2 22 -3 4 -6
-1 -10 -10 -10 -14 0 -14 -4 -1 -35 11 -26 12 -35 3 -36 -7 0 -25 -2 -41 -4
-29 -4 -29 -4 -7 12 16 11 22 24 21 47 -2 39 -1 46 6 46 3 0 2 -5 -2 -12z m67
-42 c5 3 9 0 9 -6 0 -7 -7 -9 -16 -6 -9 3 -18 6 -20 6 -3 0 -2 5 2 12 6 9 9 9
12 0 2 -7 8 -10 13 -6z m49 4 c0 -5 -2 -10 -4 -10 -3 0 -8 5 -11 10 -3 6 -1
10 4 10 6 0 11 -4 11 -10z m-140 -24 c0 -3 -4 -8 -10 -11 -5 -3 -10 -1 -10 4
0 6 5 11 10 11 6 0 10 -2 10 -4z m3220 -85 c0 -25 3 -56 6 -69 6 -20 9 -17 30
28 25 54 29 57 57 35 18 -13 16 -19 -34 -119 -43 -86 -55 -104 -68 -96 -11 6
-16 25 -18 59 -2 72 -11 80 -40 32 -21 -35 -27 -40 -44 -31 -10 6 -19 12 -19
15 0 4 83 175 93 192 17 26 37 1 37 -46z m-2985 -49 c-3 -3 -11 0 -18 7 -9 10
-8 11 6 5 10 -3 15 -9 12 -12z m3354 -104 c18 -11 16 -17 -32 -107 -27 -53
-54 -100 -58 -105 -9 -11 -39 11 -39 28 0 13 99 196 106 196 2 0 13 -5 23 -12z
m-3724 -8 c-3 -5 -12 -10 -18 -10 -7 0 -6 4 3 10 19 12 23 12 15 0z m184 -42
c12 -3 12 -6 -2 -11 -9 -3 -17 -2 -17 4 0 6 -5 7 -12 3 -7 -5 -8 -3 -3 6 6 10
4 12 -8 7 -10 -3 -17 -2 -17 2 0 15 24 19 35 6 6 -6 17 -14 24 -17z m76 -38
c22 -18 32 -19 55 -7 8 5 4 -1 -9 -13 -22 -18 -26 -19 -33 -6 -5 9 -16 16 -24
16 -9 0 -12 5 -8 12 5 8 0 9 -14 6 -15 -4 -22 -2 -22 8 0 16 26 9 55 -16z m75
-44 c0 -3 -4 -8 -10 -11 -5 -3 -10 -1 -10 4 0 6 5 11 10 11 6 0 10 -2 10 -4z
m-405 -16 c3 -5 -1 -10 -10 -10 -9 0 -13 5 -10 10 3 6 8 10 10 10 2 0 7 -4 10
-10z m434 -11 c-15 -9 -32 -2 -24 11 3 5 13 6 21 3 12 -4 13 -8 3 -14z m-329
-30 c0 -10 -35 -6 -42 5 -12 18 2 26 22 13 11 -6 20 -14 20 -18z m4053 -3 c50
-21 81 -55 66 -72 -13 -16 -49 -19 -49 -5 0 37 -68 53 -107 26 -67 -47 0 -189
70 -146 18 12 22 11 34 -5 21 -28 11 -39 -40 -42 -90 -6 -152 54 -144 141 5
52 26 82 72 103 39 17 58 17 98 0z m-4036 -18 c-3 -8 -6 -5 -6 6 -1 11 2 17 5
13 3 -3 4 -12 1 -19z m397 14 c2 -4 -4 -8 -14 -8 -10 0 -16 4 -14 8 3 4 9 8
14 8 5 0 11 -4 14 -8z m-320 -50 c3 -5 -1 -9 -9 -9 -8 0 -12 4 -9 9 3 4 7 8 9
8 2 0 6 -4 9 -8z m46 -12 c0 -5 -5 -10 -11 -10 -5 0 -7 5 -4 10 3 6 8 10 11
10 2 0 4 -4 4 -10z m106 -29 c-9 -10 -14 -20 -11 -22 2 -3 -7 -5 -20 -5 -19 0
-22 3 -13 13 5 7 14 10 19 7 5 -3 9 0 9 6 0 6 -7 13 -16 17 -12 4 -13 8 -3 14
7 4 21 3 32 -2 17 -10 17 -12 3 -28z m-69 -3 c-3 -8 -6 -5 -6 6 -1 11 2 17 5
13 3 -3 4 -12 1 -19z m164 -23 c43 -22 69 -41 67 -50 -2 -7 2 -14 7 -13 6 0 9
4 8 9 -2 4 4 6 12 3 9 -4 14 -12 13 -19 -2 -8 2 -13 7 -12 6 1 9 5 8 9 -2 4
13 0 32 -9 37 -18 41 -36 9 -41 -16 -3 -17 -1 -4 7 23 16 -7 33 -33 19 -11 -5
-22 -6 -26 -2 -3 5 -19 15 -34 23 -15 8 -25 20 -23 28 8 20 -12 25 -24 6 -10
-16 -11 -16 -7 5 3 12 0 22 -6 23 -7 1 -21 2 -32 3 -11 0 -19 6 -18 13 1 6 -5
10 -14 9 -9 -2 -17 -10 -19 -20 -2 -14 0 -15 12 -5 11 9 15 8 20 -5 9 -24 2
-27 -33 -14 -29 11 -29 12 -16 40 8 15 16 28 19 28 2 0 36 -16 75 -35z m109
-25 c-13 -9 -13 -10 0 -11 8 -1 20 -2 25 -4 6 -1 14 -3 18 -3 5 -1 5 -6 2 -12
-4 -6 -21 -2 -46 10 -43 22 -48 28 -21 26 10 0 16 5 14 14 -3 12 -1 13 10 2
11 -11 10 -14 -2 -22z m-113 -36 c-3 -3 -12 -4 -19 -1 -8 3 -5 6 6 6 11 1 17
-2 13 -5z m188 -14 c3 -6 -1 -7 -9 -4 -18 7 -21 14 -7 14 6 0 13 -4 16 -10z
m75 -1 c0 -6 6 -9 13 -6 7 3 22 -2 32 -10 19 -15 18 -15 -10 -9 -32 8 -69 36
-47 36 7 0 12 -5 12 -11z m-26 -20 c-3 -5 -10 -7 -15 -3 -5 3 -7 10 -3 15 3 5
10 7 15 3 5 -3 7 -10 3 -15z m70 -29 c5 -5 7 -12 4 -15 -3 -3 -12 1 -21 9 -8
8 -17 13 -20 10 -3 -3 -8 -1 -11 5 -8 13 34 5 48 -9z m-204 6 c0 -2 -9 -6 -20
-9 -11 -3 -20 -1 -20 4 0 5 9 9 20 9 11 0 20 -2 20 -4z m143 -10 c15 -11 15
-15 3 -25 -11 -9 -16 -9 -22 0 -4 8 -3 9 4 5 19 -11 14 5 -5 20 -10 7 -13 13
-8 13 6 0 18 -6 28 -13z m105 -6 c7 -11 9 -20 4 -20 -4 0 -13 9 -20 20 -7 11
-9 20 -4 20 4 0 13 -9 20 -20z m-58 -20 c0 -5 -2 -10 -4 -10 -3 0 -8 5 -11 10
-3 6 -1 10 4 10 6 0 11 -4 11 -10z m101 -7 c13 -16 12 -17 -3 -4 -17 13 -22
21 -14 21 2 0 10 -8 17 -17z m96 2 c0 -8 -4 -12 -9 -9 -5 3 -6 10 -3 15 9 13
12 11 12 -6z m-32 -14 c-3 -5 2 -17 11 -25 8 -9 12 -16 7 -16 -5 0 -16 9 -25
19 -12 14 -13 21 -5 25 18 7 19 7 12 -3z m45 -85 c0 -3 -4 -8 -10 -11 -5 -3
-10 -1 -10 4 0 6 5 11 10 11 6 0 10 -2 10 -4z m165 -96 c3 -6 -1 -7 -9 -4 -18
7 -21 14 -7 14 6 0 13 -4 16 -10z m309 -122 c-3 -4 -11 -5 -19 -1 -21 7 -19
12 4 10 11 0 18 -5 15 -9z m11 -38 c3 -6 -1 -7 -9 -4 -18 7 -21 14 -7 14 6 0
13 -4 16 -10z m40 -20 c3 -6 -1 -7 -9 -4 -18 7 -21 14 -7 14 6 0 13 -4 16 -10z
m2587 -447 c24 -22 23 -50 -3 -64 -20 -10 -21 -9 -15 15 5 22 2 28 -19 38 -31
14 -43 4 -27 -23 29 -46 -16 -80 -52 -40 -25 28 -16 53 24 73 45 22 69 22 92
1z m-95 -715 c-3 -7 -5 -2 -5 12 0 14 2 19 5 13 2 -7 2 -19 0 -25z m-10 -80
c-2 -13 -4 -3 -4 22 0 25 2 35 4 23 2 -13 2 -33 0 -45z m5 -85 l-10 -38 -1 50
c-1 36 2 46 10 38 8 -8 8 -22 1 -50z"/>
<path d="M5223 7191 c-78 -49 -34 -127 56 -101 46 13 61 28 61 60 0 52 -64 74
-117 41z m83 -12 c10 -17 -12 -32 -36 -24 -17 5 -19 10 -9 21 14 17 35 18 45
3z"/>
<path d="M5594 7666 c-9 -23 -1 -48 19 -60 26 -16 62 27 47 55 -13 22 -58 26
-66 5z m50 -21 c3 -9 -1 -18 -10 -22 -19 -7 -28 2 -21 22 8 19 23 19 31 0z"/>
<path d="M4842 7560 c-32 -20 -33 -22 -19 -43 35 -54 110 -55 123 -1 6 21 2
31 -16 46 -29 23 -47 23 -88 -2z m58 -35 c-11 -13 -10 -14 6 -8 17 6 17 5 6
-10 -11 -13 -18 -14 -38 -5 -37 17 -27 35 20 37 15 1 16 -1 6 -14z"/>
<path d="M6491 7423 c-19 -23 -20 -29 -8 -47 32 -48 105 -43 129 9 27 60 -78
93 -121 38z"/>
<path d="M6112 7131 c-97 -46 -80 -166 31 -216 66 -31 110 -22 156 31 36 40
38 63 12 121 -35 75 -117 102 -199 64z m139 -54 c54 -37 50 -71 -15 -104 -22
-11 -31 -12 -34 -4 -3 9 -8 9 -17 1 -18 -15 -59 -3 -86 26 -19 21 -21 27 -11
49 13 28 62 54 103 55 14 0 41 -10 60 -23z"/>
<path d="M6156 7064 c-22 -22 -20 -39 8 -53 27 -15 66 -1 66 24 0 44 -42 61
-74 29z"/>
<path d="M5576 6880 c-104 -22 -186 -67 -231 -128 -43 -58 -282 -394 -337
-475 -54 -78 -59 -108 -29 -172 10 -22 41 -66 69 -98 49 -58 70 -97 50 -97 -7
0 16 -48 38 -78 1 -2 11 1 23 7 17 9 55 -3 228 -76 l208 -88 105 1 c119 0 202
18 298 65 48 24 74 45 115 97 73 91 312 450 354 529 36 71 40 98 19 146 -26
60 -75 93 -261 175 -99 44 -244 110 -323 146 -162 75 -178 77 -326 46z m114
-246 c13 -32 13 -30 -6 -48 -32 -32 -104 -8 -104 34 0 18 25 44 50 52 22 8 50
-10 60 -38z m230 -29 c18 -21 3 -55 -25 -55 -22 0 -55 23 -55 39 0 29 59 41
80 16z m-425 -104 c0 -31 -28 -50 -52 -35 -41 25 -22 67 27 62 19 -2 25 -9 25
-27z m406 -14 c65 -31 86 -33 110 -11 10 9 22 13 27 10 16 -9 23 -68 11 -83
-9 -10 -6 -22 15 -51 14 -21 26 -46 26 -56 0 -9 4 -14 10 -11 6 3 7 -1 4 -9
-3 -9 -10 -16 -15 -16 -5 0 -9 -13 -9 -29 0 -33 -20 -58 -58 -72 -35 -13 -37
-6 -10 31 71 96 -17 237 -179 286 -85 26 -229 -17 -286 -86 -25 -29 -47 -86
-47 -121 0 -30 62 -139 91 -160 31 -22 31 -39 -1 -39 -10 0 -25 -7 -33 -15
-13 -13 -16 -13 -21 0 -7 18 -37 20 -54 3 -18 -18 -15 -53 7 -79 16 -20 23
-22 47 -14 17 6 31 20 35 35 l7 25 1 -27 c1 -29 -30 -58 -63 -58 -11 0 -30 10
-43 22 -30 28 -30 82 -1 143 21 44 22 46 5 92 -23 63 -21 107 4 160 67 139
270 202 420 130z m281 6 c42 -38 -3 -89 -57 -65 -34 16 -41 39 -20 62 22 24
52 26 77 3z m-318 -101 c41 -24 76 -78 76 -117 0 -44 -37 -94 -89 -122 -113
-60 -264 8 -264 119 0 114 165 185 277 120z m-524 -67 c18 -21 8 -48 -22 -63
-36 -17 -68 -1 -68 33 0 40 64 62 90 30z m877 -6 c26 -26 -22 -68 -57 -49 -25
13 -26 36 -2 49 23 14 45 14 59 0z m-72 -59 c3 -5 1 -10 -4 -10 -6 0 -11 5
-11 10 0 6 2 10 4 10 3 0 8 -4 11 -10z m-821 -116 c9 -3 16 -17 16 -30 0 -40
-72 -47 -87 -8 -11 29 34 52 71 38z m296 -104 c0 -5 -9 -10 -20 -10 -11 0 -20
5 -20 10 0 6 9 10 20 10 11 0 20 -4 20 -10z m281 -30 c21 -12 25 -50 7 -68
-18 -18 -75 -15 -82 4 -21 55 22 92 75 64z m-127 -16 c22 -9 21 -61 -1 -68
-29 -9 -78 9 -82 29 -6 32 42 55 83 39z"/>
<path d="M5617 6632 c-10 -11 -15 -26 -11 -36 8 -20 57 -22 73 -2 12 14 5 46
-9 46 -5 0 -15 2 -22 5 -8 3 -22 -3 -31 -13z"/>
<path d="M5719 6378 c-109 -29 -124 -162 -24 -204 46 -19 82 -17 131 5 49 22
74 54 74 96 0 42 -25 74 -74 96 -45 21 -55 21 -107 7z m82 -84 c11 -14 10 -18
-6 -30 -24 -18 -44 -15 -59 9 -20 32 39 52 65 21z"/>
<path d="M6484 6707 c-4 -10 4 -29 20 -48 14 -17 45 -63 68 -102 42 -73 59
-77 37 -10 -17 53 -53 114 -88 147 -26 25 -31 27 -37 13z"/>
<path d="M6623 6224 c-100 -49 -54 -174 65 -174 62 0 100 46 73 89 -7 11 -10
11 -17 -2 -15 -26 -49 -25 -52 1 -2 12 -7 22 -12 22 -5 0 -7 -6 -4 -13 2 -7
-2 -21 -10 -32 -13 -18 -15 -18 -40 -2 -33 22 -33 42 -1 63 18 12 38 15 67 11
27 -4 37 -2 27 4 -7 5 -25 9 -39 9 -25 1 -25 1 -2 10 12 5 30 6 40 3 15 -6 15
-5 3 10 -17 21 -56 21 -98 1z"/>
<path d="M6710 6166 c0 -2 7 -7 16 -10 8 -3 12 -2 9 4 -6 10 -25 14 -25 6z"/>
<path d="M6367 6069 c7 -7 15 -10 18 -7 3 3 -2 9 -12 12 -14 6 -15 5 -6 -5z"/>
<path d="M5175 5644 c-75 -39 -98 -89 -69 -149 43 -90 161 -114 233 -46 25 24
31 37 31 73 0 105 -103 170 -195 122z m124 -49 c43 -21 46 -52 10 -88 l-31
-30 -12 24 c-9 19 -9 27 1 37 19 19 16 40 -6 52 -29 15 -37 13 -56 -17 -17
-25 -17 -27 5 -43 15 -11 19 -19 11 -24 -16 -10 -14 -26 3 -26 8 0 17 8 19 18
3 12 5 10 6 -7 1 -22 -1 -23 -41 -17 -78 13 -104 67 -50 104 50 36 95 41 141
17z"/>
<path d="M4929 6953 c-1 -5 -1 -11 0 -15 0 -5 -4 -7 -10 -5 -6 1 -17 -15 -26
-36 -15 -37 -15 -39 7 -62 13 -14 38 -27 55 -31 36 -6 102 17 111 40 8 21 -34
92 -63 105 -27 13 -72 15 -74 4z m99 -36 c18 -14 15 -45 -7 -57 -29 -15 -31
-13 -31 23 l-1 32 -14 -32 c-15 -36 -35 -42 -56 -17 -9 11 -10 20 -2 32 22 37
76 46 111 19z"/>
<path d="M7306 6874 c-22 -21 -20 -51 3 -64 26 -14 50 -3 57 26 11 44 -29 70
-60 38z m34 -33 c0 -10 -7 -18 -15 -18 -8 0 -15 6 -15 14 0 7 5 13 11 13 5 0
7 5 3 12 -4 7 -3 8 4 4 7 -4 12 -15 12 -25z"/>
<path d="M7080 6513 c-49 -18 -65 -67 -32 -96 23 -21 42 -22 42 -2 0 8 -7 15
-15 15 -8 0 -15 7 -15 15 0 10 7 15 18 13 9 -2 16 2 15 8 -1 7 6 10 17 7 14
-4 20 -14 20 -34 0 -32 11 -37 34 -13 43 43 -21 110 -84 87z"/>
<path d="M3582 6314 c-12 -8 -22 -21 -22 -29 0 -19 39 -45 67 -45 28 0 54 38
46 68 -7 27 -56 31 -91 6z"/>
<path d="M4140 6200 c-26 -26 -25 -36 5 -65 27 -28 45 -31 78 -14 26 14 37 28
37 51 0 46 -82 66 -120 28z m46 -39 c-3 -4 2 -8 10 -8 8 0 13 6 10 14 -3 7 1
13 9 13 31 0 10 -31 -25 -37 -22 -3 -44 18 -28 28 14 9 31 2 24 -10z"/>
<path d="M3871 6058 c13 -18 25 -26 27 -19 4 13 -25 51 -40 51 -5 0 1 -14 13
-32z"/>
<path d="M3940 5734 c0 -8 5 -12 10 -9 6 3 10 10 10 16 0 5 -4 9 -10 9 -5 0
-10 -7 -10 -16z"/>
<path d="M3057 5955 c-36 -45 -29 -45 16 0 19 19 30 35 24 35 -7 0 -25 -16
-40 -35z"/>
<path d="M3160 5950 c0 -5 5 -10 11 -10 5 0 7 5 4 10 -3 6 -8 10 -11 10 -2 0
-4 -4 -4 -10z"/>
<path d="M3135 5900 c-10 -11 -14 -20 -9 -20 5 0 15 9 22 20 7 11 11 20 9 20
-2 0 -12 -9 -22 -20z"/>
<path d="M3254 5875 c-17 -20 -28 -37 -24 -40 8 -5 16 3 43 48 23 36 18 34
-19 -8z"/>
<path d="M3166 5885 c-11 -8 -15 -15 -9 -15 6 0 16 7 23 15 16 19 11 19 -14 0z"/>
<path d="M3206 5873 c-6 -14 -5 -15 5 -6 7 7 10 15 7 18 -3 3 -9 -2 -12 -12z"/>
<path d="M3314 5868 c-35 -40 -47 -58 -38 -58 5 0 18 13 29 29 11 17 29 34 40
40 15 7 16 10 4 10 -8 1 -24 -9 -35 -21z"/>
<path d="M3374 5829 c-10 -12 -18 -24 -16 -28 1 -3 -2 -7 -8 -7 -23 -3 -24 -5
-10 -13 18 -12 24 -8 49 34 23 39 15 47 -15 14z"/>
<path d="M2945 5499 c-4 -6 -5 -12 -2 -15 2 -3 7 2 10 11 7 17 1 20 -8 4z"/>
<path d="M7215 5576 c-29 -29 -24 -53 11 -62 59 -15 97 20 69 62 -20 31 -49
30 -80 0z"/>
<path d="M6662 4883 c-27 -5 -48 -38 -31 -49 7 -4 18 1 26 11 13 18 13 18 28
-1 8 -10 13 -24 10 -31 -5 -16 9 -25 29 -17 25 10 31 52 11 74 -18 20 -28 21
-73 13z"/>
<path d="M6170 5230 c-42 -42 -19 -79 53 -87 39 -5 46 -2 65 22 27 34 27 40 2
65 -13 13 -33 20 -60 20 -27 0 -47 -7 -60 -20z m80 -25 c11 -13 10 -14 -5 -8
-14 5 -17 3 -12 -10 4 -11 1 -17 -7 -17 -9 0 -12 7 -9 20 3 11 0 20 -6 20 -6
0 -11 -7 -11 -17 0 -9 -3 -14 -6 -10 -4 3 -4 13 -1 22 8 19 41 19 57 0z"/>
<path d="M3860 5090 c-32 -64 -37 -89 -18 -108 17 -17 69 -15 94 3 26 18 47
65 42 96 -3 21 -58 69 -79 69 -5 0 -22 -27 -39 -60z"/>
<path d="M4831 5176 c-16 -19 -11 -46 12 -60 25 -16 52 4 52 40 0 24 -5 30
-26 32 -14 2 -31 -4 -38 -12z"/>
<path d="M2815 5110 c-16 -7 -17 -9 -3 -9 9 -1 20 4 23 9 7 11 7 11 -20 0z"/>
<path d="M2786 5009 c-32 -31 -32 -33 1 -43 19 -6 23 -2 29 29 3 20 5 38 3 40
-2 2 -17 -10 -33 -26z"/>
<path d="M4293 4845 c-24 -41 -43 -76 -43 -79 0 -7 62 -26 85 -26 12 0 34 12
49 26 38 38 36 87 -5 125 -17 16 -34 29 -38 29 -3 0 -25 -34 -48 -75z"/>
<path d="M2455 4840 c3 -5 11 -10 16 -10 6 0 7 5 4 10 -3 6 -11 10 -16 10 -6
0 -7 -4 -4 -10z"/>
<path d="M1320 4100 c8 -5 20 -10 25 -10 6 0 3 5 -5 10 -8 5 -19 10 -25 10 -5
0 -3 -5 5 -10z"/>
<path d="M1390 4056 c0 -2 7 -7 16 -10 8 -3 12 -2 9 4 -6 10 -25 14 -25 6z"/>
<path d="M1435 4050 c-3 -5 -1 -10 4 -10 6 0 11 5 11 10 0 6 -2 10 -4 10 -3 0
-8 -4 -11 -10z"/>
<path d="M1714 3892 c18 -21 29 -23 27 -5 -1 4 -4 8 -8 8 -5 0 -15 4 -23 9 -9
6 -7 1 4 -12z"/>
<path d="M1860 3826 c0 -2 8 -10 18 -17 15 -13 16 -12 3 4 -13 16 -21 21 -21
13z"/>
<path d="M2485 3350 c-3 -6 1 -7 9 -4 18 7 21 14 7 14 -6 0 -13 -4 -16 -10z"/>
<path d="M4675 4113 c-6 -18 10 -33 38 -33 25 0 18 31 -10 41 -16 6 -23 3 -28
-8z"/>
<path d="M6340 3913 c-62 -23 -81 -104 -35 -147 52 -49 128 -37 160 24 20 38
11 73 -27 105 -28 24 -64 30 -98 18z"/>
<path d="M1865 3590 c3 -5 8 -10 11 -10 2 0 4 5 4 10 0 6 -5 10 -11 10 -5 0
-7 -4 -4 -10z"/>
<path d="M2015 3510 c3 -5 8 -10 11 -10 2 0 4 5 4 10 0 6 -5 10 -11 10 -5 0
-7 -4 -4 -10z"/>
<path d="M2956 7084 c-8 -21 -8 -34 2 -34 4 0 9 11 10 25 2 28 -3 32 -12 9z"/>
<path d="M2910 7019 c0 -5 5 -7 10 -4 6 3 10 8 10 11 0 2 -4 4 -10 4 -5 0 -10
-5 -10 -11z"/>
<path d="M2830 6907 c0 -8 7 -14 15 -14 8 0 15 6 15 14 0 7 -7 13 -15 13 -8 0
-15 -6 -15 -13z"/>
<path d="M2805 6850 c3 -5 8 -10 11 -10 2 0 4 5 4 10 0 6 -5 10 -11 10 -5 0
-7 -4 -4 -10z"/>
<path d="M2800 6752 c0 -14 11 -21 26 -15 21 8 17 23 -6 23 -11 0 -20 -4 -20
-8z"/>
<path d="M2737 6677 c-2 -6 2 -18 9 -25 12 -11 14 -9 14 7 0 23 -16 36 -23 18z"/>
<path d="M2760 6605 c0 -8 2 -15 4 -15 2 0 6 7 10 15 3 8 1 15 -4 15 -6 0 -10
-7 -10 -15z"/>
<path d="M2805 6571 c-3 -5 -1 -12 5 -16 5 -3 10 1 10 9 0 18 -6 21 -15 7z"/>
<path d="M2700 6550 c0 -6 7 -10 15 -10 8 0 15 2 15 4 0 2 -7 6 -15 10 -8 3
-15 1 -15 -4z"/>
<path d="M2735 6510 c-3 -5 -1 -10 4 -10 6 0 11 5 11 10 0 6 -2 10 -4 10 -3 0
-8 -4 -11 -10z"/>
<path d="M2706 6484 c-10 -26 -7 -34 12 -33 9 0 12 3 6 5 -7 3 -10 14 -7 24 6
24 -2 27 -11 4z"/>
<path d="M2748 6473 c7 -3 16 -2 19 1 4 3 -2 6 -13 5 -11 0 -14 -3 -6 -6z"/>
<path d="M2681 6404 c0 -11 3 -14 6 -6 3 7 2 16 -1 19 -3 4 -6 -2 -5 -13z"/>
<path d="M2685 6322 c-3 -9 -3 -13 1 -9 4 4 13 2 21 -4 10 -9 13 -8 13 4 0 21
-27 29 -35 9z"/>
<path d="M2580 6269 c0 -5 5 -7 10 -4 6 3 10 8 10 11 0 2 -4 4 -10 4 -5 0 -10
-5 -10 -11z"/>
<path d="M2640 6251 c0 -5 -3 -16 -6 -25 -3 -9 -2 -16 3 -16 5 0 10 11 11 25
1 14 0 25 -3 25 -3 0 -5 -4 -5 -9z"/>
<path d="M2566 6205 c-3 -8 -1 -15 4 -15 6 0 10 7 10 15 0 8 -2 15 -4 15 -2 0
-6 -7 -10 -15z"/>
<path d="M2666 6197 c11 -37 17 -37 28 -2 5 16 1 21 -14 22 -17 2 -20 -2 -14
-20z"/>
<path d="M2585 6170 c-3 -5 1 -10 10 -10 9 0 13 5 10 10 -3 6 -8 10 -10 10 -2
0 -7 -4 -10 -10z"/>
<path d="M2545 6160 c3 -5 8 -10 11 -10 2 0 4 5 4 10 0 6 -5 10 -11 10 -5 0
-7 -4 -4 -10z"/>
<path d="M2595 6141 c-3 -6 4 -9 15 -8 11 1 20 5 20 9 0 11 -28 10 -35 -1z"/>
<path d="M2560 6105 c0 -8 5 -15 10 -15 6 0 10 5 10 11 0 5 5 7 10 4 6 -3 10
-1 10 4 0 6 -9 11 -20 11 -11 0 -20 -7 -20 -15z"/>
<path d="M2576 6072 c-2 -4 -1 -14 5 -22 7 -12 9 -10 9 8 0 23 -5 28 -14 14z"/>
<path d="M2490 6032 c0 -5 7 -9 15 -9 8 0 15 4 15 9 0 4 -7 8 -15 8 -8 0 -15
-4 -15 -8z"/>
<path d="M2535 6001 c-3 -5 -2 -12 3 -15 5 -3 9 1 9 9 0 17 -3 19 -12 6z"/>
<path d="M2495 5990 c-4 -6 -3 -16 3 -22 6 -6 12 -6 17 2 4 6 3 16 -3 22 -6 6
-12 6 -17 -2z"/>
<path d="M2605 5990 c3 -5 11 -10 16 -10 6 0 7 5 4 10 -3 6 -11 10 -16 10 -6
0 -7 -4 -4 -10z"/>
<path d="M2476 5934 c-10 -25 -7 -34 9 -28 11 5 13 2 9 -10 -3 -9 -12 -16 -20
-16 -16 0 -19 -16 -4 -25 6 -3 10 -1 10 5 0 6 4 9 9 6 5 -3 11 4 15 17 9 33 8
37 -11 37 -16 1 -16 2 1 15 16 12 17 15 4 15 -9 0 -19 -7 -22 -16z"/>
<path d="M2423 5920 c4 -18 37 -27 37 -10 0 6 -5 8 -11 4 -6 -3 -16 0 -21 7
-8 12 -9 11 -5 -1z"/>
<path d="M2435 5880 c3 -5 8 -10 11 -10 2 0 4 5 4 10 0 6 -5 10 -11 10 -5 0
-7 -4 -4 -10z"/>
<path d="M2420 5850 c0 -6 7 -10 15 -10 8 0 15 2 15 4 0 2 -7 6 -15 10 -8 3
-15 1 -15 -4z"/>
<path d="M2510 5839 c0 -5 5 -7 10 -4 6 3 10 8 10 11 0 2 -4 4 -10 4 -5 0 -10
-5 -10 -11z"/>
<path d="M2367 5706 c-4 -10 -5 -21 -2 -24 9 -9 17 6 13 25 -3 17 -4 17 -11
-1z"/>
<path d="M2406 5625 c-3 -8 -1 -15 4 -15 6 0 10 5 10 11 0 6 7 9 15 5 8 -3 15
-1 15 4 0 16 -37 11 -44 -5z"/>
<path d="M2470 5620 c0 -5 -8 -10 -17 -10 -16 0 -16 -2 -3 -11 12 -8 9 -9 -11
-5 -14 3 -33 0 -43 -7 -15 -11 -15 -13 4 -25 12 -7 20 -8 20 -2 0 5 -5 10 -12
10 -9 0 -9 3 0 12 8 8 15 8 24 0 13 -11 44 4 46 21 1 16 12 20 12 5 0 -9 6
-19 13 -21 7 -3 4 -6 -6 -6 -21 -1 -18 -22 3 -29 7 -3 10 0 6 7 -7 11 11 16
52 12 26 -2 27 2 6 24 -15 14 -17 14 -31 -2 -10 -13 -13 -14 -10 -3 2 8 -2 20
-9 27 -15 15 -44 17 -44 3z"/>
<path d="M2331 5591 c-9 -6 -10 -11 -2 -15 6 -4 11 -2 11 4 0 6 5 8 10 5 6 -3
10 -1 10 4 0 13 -10 14 -29 2z"/>
<path d="M2484 5525 c11 -8 16 -15 11 -15 -5 0 -4 -5 2 -11 6 -6 16 -8 23 -4
12 7 -25 45 -44 45 -6 0 -2 -7 8 -15z"/>
<path d="M2445 5511 c3 -5 1 -12 -5 -16 -13 -8 -13 -25 0 -25 6 0 10 7 10 15
0 8 5 15 10 15 6 0 10 5 10 10 0 6 -7 10 -16 10 -8 0 -13 -4 -9 -9z"/>
<path d="M2327 5475 c-4 -8 -2 -17 3 -20 6 -4 10 3 10 14 0 25 -6 27 -13 6z"/>
<path d="M2436 5435 c-3 -8 -1 -15 4 -15 6 0 10 7 10 15 0 8 -2 15 -4 15 -2 0
-6 -7 -10 -15z"/>
<path d="M2360 5252 c0 -7 5 -12 11 -12 5 0 7 -6 3 -12 -4 -7 2 -4 14 6 23 20
31 36 9 17 -10 -8 -17 -7 -25 1 -9 9 -12 9 -12 0z"/>
<path d="M2223 5183 c0 -9 4 -10 14 -2 7 6 13 12 13 14 0 1 -6 2 -13 2 -8 0
-14 -6 -14 -14z"/>
<path d="M2352 5155 c0 -16 2 -22 5 -12 2 9 2 23 0 30 -3 6 -5 -1 -5 -18z"/>
<path d="M2290 5117 c0 -14 4 -28 9 -32 6 -3 8 6 5 22 -7 37 -14 42 -14 10z"/>
<path d="M2236 5114 c-5 -14 -4 -15 9 -4 17 14 19 20 6 20 -5 0 -12 -7 -15
-16z"/>
<path d="M2477 5110 c-9 -11 -13 -20 -7 -20 5 0 14 9 20 20 6 11 9 20 8 20 -2
0 -11 -9 -21 -20z"/>
<path d="M2256 5092 c-2 -4 -1 -14 5 -22 7 -12 9 -10 9 8 0 23 -5 28 -14 14z"/>
<path d="M2312 5061 c-11 -7 -10 -10 3 -15 23 -9 25 -8 25 9 0 17 -9 19 -28 6z"/>
<path d="M2220 5031 c1 -20 16 -26 31 -10 15 15 15 17 -7 17 -13 0 -24 -3 -24
-7z"/>
<path d="M2255 5000 c3 -5 8 -10 11 -10 2 0 4 5 4 10 0 6 -5 10 -11 10 -5 0
-7 -4 -4 -10z"/>
<path d="M2270 4915 c0 -8 4 -15 8 -15 5 0 9 7 9 15 0 8 -4 15 -9 15 -4 0 -8
-7 -8 -15z"/>
<path d="M2275 4880 c-3 -5 1 -10 10 -10 9 0 13 5 10 10 -3 6 -8 10 -10 10 -2
0 -7 -4 -10 -10z"/>
<path d="M2231 4877 c2 -1 13 -9 24 -17 19 -14 19 -14 6 3 -7 9 -18 17 -24 17
-6 0 -8 -1 -6 -3z"/>
<path d="M2270 4826 c0 -9 5 -16 10 -16 6 0 10 4 10 9 0 6 -4 13 -10 16 -5 3
-10 -1 -10 -9z"/>
<path d="M1283 4785 c-17 -7 -36 -22 -41 -32 -14 -25 -18 -90 -8 -100 5 -5 6
-2 1 7 -5 8 10 -4 33 -28 23 -24 46 -41 52 -37 5 3 10 2 10 -2 0 -16 70 -14
106 3 68 32 81 97 31 146 -12 11 -16 17 -8 13 10 -6 12 -4 7 4 -5 7 -10 10
-13 7 -3 -3 -17 4 -31 14 -29 24 -92 26 -139 5z m127 -40 c16 -19 9 -49 -13
-53 -12 -3 -17 3 -17 22 0 16 -7 27 -21 31 -28 9 -33 1 -21 -33 11 -31 1 -52
-25 -52 -21 0 -53 38 -47 55 15 39 119 61 144 30z"/>
<path d="M2216 4782 c-10 -29 -3 -37 21 -23 10 6 13 11 6 11 -6 0 -13 8 -15
18 -3 14 -6 13 -12 -6z"/>
<path d="M2248 4743 c7 -3 16 -2 19 1 4 3 -2 6 -13 5 -11 0 -14 -3 -6 -6z"/>
<path d="M2160 4710 c0 -5 5 -10 11 -10 5 0 7 5 4 10 -3 6 -8 10 -11 10 -2 0
-4 -4 -4 -10z"/>
<path d="M2213 4685 c0 -8 4 -15 9 -15 4 0 8 5 8 11 0 5 4 8 9 4 5 -3 12 -1
16 5 3 6 -4 10 -18 10 -14 0 -24 -6 -24 -15z"/>
<path d="M2170 4665 c-7 -14 -20 -25 -29 -25 -11 0 -9 -5 7 -16 13 -9 26 -13
29 -10 4 3 2 6 -4 6 -8 0 -8 7 0 24 7 13 15 22 19 20 5 -3 8 -1 8 5 0 21 -18
19 -30 -4z"/>
<path d="M2087 4621 c-17 -18 -17 -18 7 -14 16 3 23 10 19 19 -3 8 -6 14 -7
13 0 0 -9 -8 -19 -18z"/>
<path d="M2046 4601 c-4 -7 -5 -15 -2 -18 9 -9 19 4 14 18 -4 11 -6 11 -12 0z"/>
<path d="M2125 4600 c-3 -6 1 -7 9 -4 18 7 21 14 7 14 -6 0 -13 -4 -16 -10z"/>
<path d="M2010 4536 c0 -2 7 -6 15 -10 8 -3 15 -1 15 4 0 6 -7 10 -15 10 -8 0
-15 -2 -15 -4z"/>
<path d="M2055 4510 c3 -5 14 -10 23 -10 15 0 15 2 2 10 -20 13 -33 13 -25 0z"/>
<path d="M2030 4490 c0 -5 5 -10 10 -10 6 0 10 5 10 10 0 6 -4 10 -10 10 -5 0
-10 -4 -10 -10z"/>
<path d="M2000 4481 c0 -6 4 -13 10 -16 6 -3 7 1 4 9 -7 18 -14 21 -14 7z"/>
<path d="M2056 4475 c-3 -8 -1 -15 4 -15 13 0 22 18 11 24 -5 3 -11 -1 -15 -9z"/>
<path d="M1988 4408 c3 -13 7 -16 12 -8 4 6 16 12 28 13 29 2 17 11 -17 13
-24 1 -28 -2 -23 -18z"/>
<path d="M2087 4395 c3 -8 9 -12 14 -9 12 7 11 11 -5 17 -10 4 -13 1 -9 -8z"/>
<path d="M1980 4358 c0 -4 4 -8 9 -8 6 0 12 4 15 8 3 5 -1 9 -9 9 -8 0 -15 -4
-15 -9z"/>
<path d="M2005 4310 c3 -5 8 -10 11 -10 2 0 4 5 4 10 0 6 -5 10 -11 10 -5 0
-7 -4 -4 -10z"/>
<path d="M1970 4290 c0 -5 4 -10 9 -10 6 0 13 5 16 10 3 6 -1 10 -9 10 -9 0
-16 -4 -16 -10z"/>
<path d="M2021 4244 c0 -11 3 -14 6 -6 3 7 2 16 -1 19 -3 4 -6 -2 -5 -13z"/>
<path d="M2047 4227 c-10 -10 -17 -21 -14 -23 3 -3 12 2 20 10 11 11 17 12 19
4 3 -7 7 -8 10 -3 3 6 1 15 -6 20 -8 8 -16 5 -29 -8z"/>
<path d="M2050 4190 c0 -5 4 -10 9 -10 6 0 13 5 16 10 3 6 -1 10 -9 10 -9 0
-16 -4 -16 -10z"/>
<path d="M2016 4165 c-19 -15 -19 -15 2 -15 13 0 22 6 22 15 0 18 0 18 -24 0z"/>
<path d="M2057 4025 c-4 -8 -2 -17 3 -20 6 -4 10 3 10 14 0 25 -6 27 -13 6z"/>
<path d="M1995 3981 c-3 -5 -2 -12 3 -15 5 -3 9 1 9 9 0 17 -3 19 -12 6z"/>
<path d="M2170 3969 c0 -5 5 -7 10 -4 6 3 10 8 10 11 0 2 -4 4 -10 4 -5 0 -10
-5 -10 -11z"/>
<path d="M2070 3935 c-7 -9 -11 -17 -9 -20 3 -2 10 5 17 15 14 24 10 26 -8 5z"/>
</g>
</svg>
